STARTFONT 2.1
FONT -Monotype-Arial Narrow-Regular-I-Normal--50-360-100-100-P-234-iso8859-4
SIZE 36 100 100
FONTBOUNDINGBOX 57 57 -12 -11

STARTPROPERTIES 24
FOUNDRY "Monotype"
FAMILY_NAME "Arial Narrow"
WEIGHT_NAME "Regular"
SLANT "I"
SETWIDTH_NAME "Normal"
ADD_STYLE_NAME ""
PIXEL_SIZE 50
POINT_SIZE 360
RESOLUTION_X 100
RESOLUTION_Y 100
SPACING "P"
AVERAGE_WIDTH 234
CHARSET_REGISTRY "iso8859"
CHARSET_ENCODING "4"
FACE_NAME "Arial Narrow Italic ISO Latin4"
_DEC_DEVICE_FONTNAMES "PS=arialnarrow-it-lat4"
COPYRIGHT "Copyright (c) 1993 Monotype Typography Ltd."
CAP_HEIGHT 42
X_HEIGHT 31
WEIGHT 10
QUAD_WIDTH 25
DEFAULT_CHAR 160
FONT_DESCENT 13
FONT_ASCENT 47
ENDPROPERTIES

CHARS 191

STARTCHAR space
ENCODING 32
SWIDTH 228 0
DWIDTH 11 0
BBX 0 0 0 0
BITMAP
ENDCHAR

STARTCHAR exclam
ENCODING 33
SWIDTH 228 0
DWIDTH 11 0
BBX 13 36 1 0
BITMAP
01E0
01E0
01E0
03E0
03E0
03C0
03C0
03C0
03C0
03C0
0780
0780
0780
0780
0780
0700
0700
0700
0F00
0E00
0E00
0E00
0E00
0E00
0C00
0C00
0C00
0000
0000
0000
0000
3C00
3C00
3C00
7C00
7800
ENDCHAR

STARTCHAR quotedbl
ENCODING 34
SWIDTH 291 0
DWIDTH 15 0
BBX 15 13 4 23
BITMAP
1E78
3C78
3C78
3C78
3C78
3CF0
3CF0
38F0
38F0
38E0
30E0
70E0
70C0
ENDCHAR

STARTCHAR numbersign
ENCODING 35
SWIDTH 456 0
DWIDTH 23 0
BBX 24 36 1 0
BITMAP
007038
007038
00E038
00E038
00E070
00E070
00E070
00E070
01C070
01C070
7FFFFE
7FFFFE
7FFFFE
7FFFFE
0380E0
0380E0
0381C0
0381C0
0381C0
0381C0
0701C0
0701C0
7FFFFE
7FFFFE
7FFFFE
7FFFFE
0E0380
0E0300
0E0700
0E0700
0E0700
0C0700
1C0700
1C0600
1C0E00
1C0E00
ENDCHAR

STARTCHAR dollar
ENCODING 36
SWIDTH 456 0
DWIDTH 23 0
BBX 25 44 0 -5
BITMAP
0000C000
0001C000
000FC000
003FF000
007FF800
00FFFC00
01F1FC00
03C39E00
03C31E00
03830E00
07830F00
07830F00
07830000
07860000
07860000
03C60000
03E60000
01F60000
01FE0000
00FF0000
003FC000
001FE000
000FF000
000DF000
001CF800
00187800
00183C00
00183C00
18183C00
3C183C00
3C303C00
3C303800
3C307800
1E307800
1F30F000
0FB1F000
0FFFE000
07FFC000
01FF8000
007C0000
00600000
00E00000
00C00000
00C00000
ENDCHAR

STARTCHAR percent
ENCODING 37
SWIDTH 729 0
DWIDTH 36 0
BBX 34 38 3 -2
BITMAP
03E0001C00
0FF0003800
0FF8007800
1E3C007000
3C1C00E000
3C1C01E000
381C01C000
781C038000
701C078000
701C070000
701C0E0000
70380E0000
70381C0000
70783C0000
7070380000
38F0700000
3FE0F00000
1FC0E00000
0F81C00000
0003C0F800
000383FC00
000703FE00
000F078F00
000E0F0700
001C0E0700
001C0E0700
00381E0700
00781C0700
00701C0700
00E01C0F00
01E01C0E00
01C01C0E00
03801C1E00
07801C1C00
07000E3C00
0E000FF800
1E0007F000
000003E000
ENDCHAR

STARTCHAR ampersand
ENCODING 38
SWIDTH 547 0
DWIDTH 27 0
BBX 26 37 2 0
BITMAP
00070000
001FC000
003FE000
007FF000
00F8F000
00F07800
01E07800
01E07800
01E07800
01E07000
01E0F000
01F1F000
00F3E000
00FFC000
00FF8000
007E0000
01FC0000
03FC0000
07FC0000
0FBE0000
1F1E0000
3E0F0400
3C0F0700
38078F00
7807CF00
7803DE00
7803FE00
7801FC00
7801FC00
3800F800
3C01FC00
3E03FC00
3F0FFE00
1FFF9F00
0FFF1F00
07FE0E00
01F80400
ENDCHAR

STARTCHAR quoteright
ENCODING 39
SWIDTH 182 0
DWIDTH 9 0
BBX 9 12 4 24
BITMAP
1E00
1E00
1E00
1E00
1E00
0600
0C00
0C00
0C00
1800
3000
6000
ENDCHAR

STARTCHAR parenleft
ENCODING 40
SWIDTH 273 0
DWIDTH 14 0
BBX 16 47 2 -10
BITMAP
000C
001C
0038
0030
0070
00E0
00E0
01C0
01C0
0380
0380
0700
0700
0F00
0E00
1E00
1E00
1E00
1C00
3C00
3C00
3C00
3800
3800
3800
7800
7800
7800
7800
7800
7800
7800
7800
7800
3800
3800
3800
3800
3800
3C00
3C00
1C00
1C00
1C00
0E00
0E00
0E00
ENDCHAR

STARTCHAR parenright
ENCODING 41
SWIDTH 273 0
DWIDTH 14 0
BBX 16 47 -4 -10
BITMAP
0070
0070
0038
0038
0038
0038
003C
001C
001C
001C
001C
001E
001E
001E
001E
001E
001E
001E
001E
001E
001E
001E
001E
001C
001C
003C
003C
003C
003C
0038
0078
0078
0070
00F0
00F0
00E0
01E0
01C0
03C0
0380
0700
0700
0E00
0E00
1C00
3800
3800
ENDCHAR

STARTCHAR asterisk
ENCODING 42
SWIDTH 319 0
DWIDTH 16 0
BBX 17 15 3 21
BITMAP
01C000
01C000
01C000
01C000
11CC00
3DBE00
3FFE00
1FFC00
01C000
03E000
077000
077000
0E3800
0E3800
041000
ENDCHAR

STARTCHAR plus
ENCODING 43
SWIDTH 479 0
DWIDTH 24 0
BBX 23 24 2 6
BITMAP
003800
003800
003800
003800
003800
003800
003800
003800
003800
003800
3FFFF8
3FFFF8
3FFFF8
3FFFF8
003800
003800
003800
003800
003800
003800
003800
003800
003800
003800
ENDCHAR

STARTCHAR comma
ENCODING 44
SWIDTH 228 0
DWIDTH 11 0
BBX 10 12 -1 -7
BITMAP
0F00
0F00
0F00
1F00
1E00
0600
0600
0600
0C00
1C00
3800
2000
ENDCHAR

STARTCHAR minus
ENCODING 45
SWIDTH 479 0
DWIDTH 24 0
BBX 23 4 2 16
BITMAP
3FFFF8
3FFFF8
3FFFF8
3FFFF8
ENDCHAR

STARTCHAR period
ENCODING 46
SWIDTH 228 0
DWIDTH 11 0
BBX 8 5 1 0
BITMAP
3C
3C
3C
3C
78
ENDCHAR

STARTCHAR slash
ENCODING 47
SWIDTH 228 0
DWIDTH 11 0
BBX 22 37 -4 -1
BITMAP
000038
000070
000070
0000E0
0000E0
0001C0
0001C0
0001C0
000380
000380
000700
000700
000F00
000E00
000E00
001C00
001C00
003800
003800
007800
007000
007000
00E000
00E000
01C000
01C000
03C000
038000
038000
070000
070000
0E0000
0E0000
1E0000
1C0000
1C0000
380000
ENDCHAR

STARTCHAR zero
ENCODING 48
SWIDTH 456 0
DWIDTH 23 0
BBX 24 37 1 -1
BITMAP
000700
003FC0
007FE0
00FFF0
01F078
01E038
03C038
03803C
07801C
07001C
0F001C
0F001C
0E001C
1E001C
1E001C
1E003C
1C003C
3C003C
3C003C
3C003C
3C0038
3C0038
380078
380078
380070
3800F0
3800F0
3800E0
3801E0
3C01E0
1C03C0
1E0780
0F0F80
0FFF00
07FE00
03FC00
00E000
ENDCHAR

STARTCHAR one
ENCODING 49
SWIDTH 456 0
DWIDTH 23 0
BBX 16 36 5 0
BITMAP
000E
000E
001C
003C
007C
00FC
01FC
07F8
0FF8
3FB8
3F78
3C78
7078
0070
0070
0070
00F0
00F0
00F0
00E0
00E0
01E0
01E0
01E0
01E0
01C0
01C0
03C0
03C0
03C0
03C0
0380
0380
0780
0780
0780
ENDCHAR

STARTCHAR two
ENCODING 50
SWIDTH 456 0
DWIDTH 23 0
BBX 23 36 1 0
BITMAP
001E00
007FC0
00FFE0
01FFF0
03E0F8
07C078
078038
07803C
0F003C
0F003C
0F003C
00003C
00003C
000078
000078
0000F0
0001F0
0003E0
0007C0
000F80
001F00
003F00
007C00
00F800
01F000
03E000
07C000
078000
0F8000
1F0000
1E0000
3C0000
3FFFE0
3FFFE0
3FFFE0
7FFFE0
ENDCHAR

STARTCHAR three
ENCODING 51
SWIDTH 456 0
DWIDTH 23 0
BBX 23 37 1 -1
BITMAP
000F00
007FC0
00FFE0
01FFF0
03E0F8
03C078
078038
07803C
07803C
0F003C
00003C
00003C
000038
000078
0000F8
0001F0
001FE0
001FC0
003F80
003FE0
0001E0
0000F0
000070
000078
000078
000078
080078
380078
3C0070
3C00F0
3C00F0
1E01E0
1F07C0
0FFFC0
07FF00
03FE00
007800
ENDCHAR

STARTCHAR four
ENCODING 52
SWIDTH 456 0
DWIDTH 23 0
BBX 24 36 0 0
BITMAP
00001C
00003C
00007C
00007C
0000F8
0001F8
0003F8
0003F8
0007F8
000F78
000E70
001E70
003CF0
0078F0
0070F0
00F0E0
01E0E0
03C0E0
0381E0
0781E0
0F01E0
0E01C0
1E01C0
1FFFFC
3FFFFC
3FFFFC
3FFFFC
000380
000380
000380
000780
000780
000780
000700
000700
000700
ENDCHAR

STARTCHAR five
ENCODING 53
SWIDTH 456 0
DWIDTH 23 0
BBX 23 36 2 -1
BITMAP
01FFFC
01FFFC
01FFFC
01FFF8
03C000
03C000
038000
038000
078000
078000
070000
071F00
0F7F80
0FFFC0
0FFFE0
0F83F0
0F00F0
1E00F0
040078
000078
000078
000078
000078
000078
000078
780070
7800F0
7800F0
3801E0
3C01E0
3C03C0
1F0FC0
1FFF80
0FFF00
07FC00
00F000
ENDCHAR

STARTCHAR six
ENCODING 54
SWIDTH 456 0
DWIDTH 23 0
BBX 23 37 2 -1
BITMAP
000F80
003FE0
00FFE0
00FFF0
01F0F8
03E078
03C078
078038
07803C
0F0020
0F0000
1E0000
1E0000
1E7F00
1EFF80
3DFFC0
3FC7E0
3F01E0
3E01F0
3E00F0
3C00F0
7C0070
780070
780070
780070
780070
7800F0
7800F0
3800E0
3801E0
3C01E0
3C03C0
1E07C0
1F9F80
0FFF00
07FE00
01F800
ENDCHAR

STARTCHAR seven
ENCODING 55
SWIDTH 456 0
DWIDTH 23 0
BBX 22 35 4 0
BITMAP
3FFFF0
3FFFF0
7FFFF0
7FFFF0
0001E0
0003E0
0003C0
000780
000F00
000F00
001E00
001C00
003C00
007800
007800
00F000
00F000
01E000
01E000
01C000
03C000
03C000
078000
078000
078000
0F0000
0F0000
0F0000
1E0000
1E0000
1E0000
1E0000
3C0000
3C0000
3C0000
ENDCHAR

STARTCHAR eight
ENCODING 56
SWIDTH 456 0
DWIDTH 23 0
BBX 23 37 2 -1
BITMAP
001F00
007FC0
01FFE0
01FFF0
03E0F8
07C078
07803C
07003C
0F003C
0F003C
0F003C
0F0038
070078
0780F8
03C1F0
01FFE0
01FF80
07FFC0
0FC7E0
1F01E0
1E00F0
3C00F0
3C00F0
380070
780070
780070
7800F0
7800F0
7800F0
3801E0
3C01E0
3C03C0
1F07C0
1FFF80
0FFF00
07FC00
00F000
ENDCHAR

STARTCHAR nine
ENCODING 57
SWIDTH 456 0
DWIDTH 23 0
BBX 24 37 1 -1
BITMAP
001F00
007FC0
00FFE0
01FFF0
03E0F8
03C078
078038
07803C
0F003C
0F001C
0E001C
1E001C
1E001C
1E001C
1E003C
1E003C
1E003C
0F007C
0F00FC
0F80FC
07C3FC
07FFF8
03FF78
01FE78
007878
0000F0
0000F0
0001F0
3C01E0
3C03E0
3C03C0
1E0780
1E0F80
0FFF00
0FFE00
07FC00
01E000
ENDCHAR

STARTCHAR colon
ENCODING 58
SWIDTH 228 0
DWIDTH 11 0
BBX 11 26 1 0
BITMAP
03C0
07C0
0780
0780
0780
0000
0000
0000
0000
0000
0000
0000
0000
0000
0000
0000
0000
0000
0000
0000
0000
3C00
3C00
3C00
3C00
7800
ENDCHAR

STARTCHAR semicolon
ENCODING 59
SWIDTH 228 0
DWIDTH 11 0
BBX 13 33 -1 -7
BITMAP
00F0
01E0
01E0
01E0
01E0
0000
0000
0000
0000
0000
0000
0000
0000
0000
0000
0000
0000
0000
0000
0000
0000
0F00
0F00
0F00
1F00
1E00
0600
0600
0600
0C00
1C00
3800
2000
ENDCHAR

STARTCHAR less
ENCODING 60
SWIDTH 479 0
DWIDTH 24 0
BBX 23 23 2 6
BITMAP
000018
000078
0001F8
0007F8
001FF0
007FC0
01FF00
07FC00
1FF000
3FC000
3F0000
3C0000
3F0000
3FC000
0FF000
03FC00
00FF00
003FC0
000FF0
0003F8
0000F8
000038
000018
ENDCHAR

STARTCHAR equal
ENCODING 61
SWIDTH 479 0
DWIDTH 24 0
BBX 23 15 2 10
BITMAP
3FFFF8
3FFFF8
3FFFF8
3FFFF8
000000
000000
000000
000000
000000
000000
000000
3FFFF8
3FFFF8
3FFFF8
3FFFF8
ENDCHAR

STARTCHAR greater
ENCODING 62
SWIDTH 479 0
DWIDTH 24 0
BBX 23 23 2 6
BITMAP
300000
3C0000
3F0000
3FC000
0FF000
03FC00
00FF00
003FC0
000FF0
0003F8
0000F8
000078
0001F8
0007F8
001FE0
007F80
01FE00
07F800
1FE000
3F8000
3F0000
3C0000
300000
ENDCHAR

STARTCHAR question
ENCODING 63
SWIDTH 456 0
DWIDTH 23 0
BBX 20 37 4 0
BITMAP
00F800
03FE00
07FF00
0FFF80
1F07C0
1E03C0
3C01E0
3C01E0
3801E0
7801E0
7801E0
0001E0
0003C0
0007C0
000780
000F80
001F00
003E00
007C00
00F800
01F000
03E000
03C000
038000
078000
070000
070000
070000
000000
000000
000000
000000
1F0000
1E0000
1E0000
1E0000
1E0000
ENDCHAR

STARTCHAR at
ENCODING 64
SWIDTH 832 0
DWIDTH 42 0
BBX 40 48 1 -11
BITMAP
00003F0000
0003FFF000
000FFFFC00
001FFFFE00
007F003F00
00FC000F80
01F00007C0
01E00003E0
03C00001E0
07800000F0
0700380070
0F00FE3878
0E03FF3838
1E07FFB838
1C0783F83C
1C0F01F81C
381F01F81C
381E00F01C
383C00F01C
783C00F01C
783C00F01C
703800F01C
707800F01C
707800E01C
707800E038
707800E038
707801E078
707801E070
707801E0F0
783803C0F0
783C07C1E0
383C0FC3C0
381E1FE7C0
3C1FFFFF80
3C0FF9FF00
1E07F1FC00
1E01C0F01E
0F0000001C
0F8000003C
0780000078
03E00000F8
03F00001F0
01FC0007E0
007F803FC0
003FFFFF80
000FFFFE00
0003FFF800
00003F8000
ENDCHAR

STARTCHAR A
ENCODING 65
SWIDTH 547 0
DWIDTH 27 0
BBX 29 36 -2 0
BITMAP
00003E00
00007E00
00007E00
0000FE00
0000EE00
0001EE00
0001EE00
0003CE00
0003CF00
0003CF00
00078F00
00078F00
000F0F00
000F0700
001E0700
001E0780
003C0780
003C0780
007C0780
00780780
00F80780
00F00380
01FFFFC0
01FFFFC0
01FFFFC0
03FFFFC0
03C003C0
078003C0
078003C0
0F8001C0
0F0001E0
1F0001E0
1E0001E0
3E0001E0
3C0001E0
7C0001E0
ENDCHAR

STARTCHAR B
ENCODING 66
SWIDTH 547 0
DWIDTH 27 0
BBX 28 36 0 0
BITMAP
00FFFC00
00FFFF00
01FFFF80
01FFFFC0
01E007C0
01E003E0
01E001E0
01C001E0
03C001E0
03C001E0
03C001E0
03C001C0
038003C0
07800780
07801F80
07FFFF00
07FFFC00
07FFFE00
07FFFF00
0F001F80
0F000780
0F0007C0
0F0003C0
0F0003C0
0E0003C0
1E0003C0
1E0003C0
1E0007C0
1E000780
1E000F80
1C001F80
3C007F00
3FFFFE00
3FFFFC00
3FFFF800
3FFFE000
ENDCHAR

STARTCHAR C
ENCODING 67
SWIDTH 592 0
DWIDTH 30 0
BBX 29 38 3 -1
BITMAP
0007F000
001FFC00
007FFE00
00FFFF00
01FC1F80
03F007C0
07E003C0
07C003E0
0F8001E0
0F0001E0
1F0001E0
1E0000E0
1E000000
3C000000
3C000000
3C000000
38000000
78000000
78000000
78000000
78000000
78000000
78000000
78000000
78000000
780003C0
780007C0
3C000780
3C000780
3C000F00
3E001F00
1F003E00
1F807E00
0FC1FC00
07FFF800
03FFF000
01FFC000
007F0000
ENDCHAR

STARTCHAR D
ENCODING 68
SWIDTH 592 0
DWIDTH 30 0
BBX 31 36 0 0
BITMAP
00FFFC00
00FFFF00
01FFFF80
01FFFFC0
01E00FE0
01E003E0
01E001F0
01C000F0
03C000F0
03C000F8
03C00078
03C00078
03C00078
07800078
07800078
07800078
07800078
07800078
07800078
0F000078
0F0000F8
0F0000F0
0F0000F0
0F0000F0
0F0001E0
1E0001E0
1E0003C0
1E0007C0
1E000780
1E000F80
1E003F00
3C01FE00
3FFFFC00
3FFFF800
3FFFE000
3FFF8000
ENDCHAR

STARTCHAR E
ENCODING 69
SWIDTH 547 0
DWIDTH 27 0
BBX 31 36 0 0
BITMAP
00FFFFF8
00FFFFF8
00FFFFF8
01FFFFF8
01E00000
01E00000
01E00000
01E00000
01C00000
03C00000
03C00000
03C00000
03C00000
03C00000
03800000
07FFFFC0
07FFFFC0
07FFFFC0
07FFFF80
07800000
07000000
0F000000
0F000000
0F000000
0F000000
0F000000
0E000000
1E000000
1E000000
1E000000
1E000000
1E000000
1FFFFF80
3FFFFF80
3FFFFF80
3FFFFF00
ENDCHAR

STARTCHAR F
ENCODING 70
SWIDTH 501 0
DWIDTH 25 0
BBX 28 36 0 0
BITMAP
00FFFFE0
00FFFFE0
01FFFFE0
01FFFFC0
01E00000
01E00000
01E00000
01E00000
03C00000
03C00000
03C00000
03C00000
03C00000
03C00000
07800000
07800000
07FFFF80
07FFFF00
07FFFF00
07FFFF00
0F000000
0F000000
0F000000
0F000000
0F000000
0F000000
1E000000
1E000000
1E000000
1E000000
1E000000
1C000000
3C000000
3C000000
3C000000
3C000000
ENDCHAR

STARTCHAR G
ENCODING 71
SWIDTH 638 0
DWIDTH 32 0
BBX 30 38 3 -1
BITMAP
0003F800
001FFE00
003FFF00
00FFFF80
01FC0FC0
03F007E0
03E001E0
07C001F0
078000F0
0F0000F0
0F0000F0
1E000070
1E000000
3C000000
3C000000
3C000000
3C000000
78000000
78000000
7803FFE0
7803FFE0
7803FFE0
7803FFE0
780001E0
780001C0
780003C0
780003C0
3C0003C0
3C0003C0
3C0003C0
3E000380
1E000780
1F801F80
0FC0FF80
07FFFF00
03FFFC00
01FFF000
003F8000
ENDCHAR

STARTCHAR H
ENCODING 72
SWIDTH 592 0
DWIDTH 30 0
BBX 33 36 0 0
BITMAP
00F0001E00
00F0001E00
00E0001E00
01E0001C00
01E0003C00
01E0003C00
01E0003C00
01E0003C00
01C0003C00
03C0003800
03C0007800
03C0007800
03C0007800
03C0007800
0380007800
07FFFFF000
07FFFFF000
07FFFFF000
07FFFFF000
078000F000
0F0000F000
0F0001E000
0F0001E000
0F0001E000
0F0001E000
0F0001E000
1E0001E000
1E0003C000
1E0003C000
1E0003C000
1E0003C000
1E0003C000
3C00038000
3C00078000
3C00078000
3C00078000
ENDCHAR

STARTCHAR I
ENCODING 73
SWIDTH 228 0
DWIDTH 11 0
BBX 13 36 1 0
BITMAP
01E0
01E0
01E0
01E0
01E0
03C0
03C0
03C0
03C0
03C0
03C0
0780
0780
0780
0780
0780
0780
0F00
0F00
0F00
0F00
0F00
0F00
1E00
1E00
1E00
1E00
1E00
1C00
3C00
3C00
3C00
3C00
3C00
3800
7800
ENDCHAR

STARTCHAR J
ENCODING 74
SWIDTH 410 0
DWIDTH 20 0
BBX 23 37 0 -1
BITMAP
00003C
00003C
000078
000078
000078
000078
000078
000078
0000F0
0000F0
0000F0
0000F0
0000F0
0000F0
0001E0
0001E0
0001E0
0001E0
0001E0
0001E0
0003C0
0003C0
0003C0
0003C0
0003C0
0003C0
780780
780780
780780
780780
780F00
7C0F00
3E1F00
3FFE00
1FFC00
0FF800
03E000
ENDCHAR

STARTCHAR K
ENCODING 75
SWIDTH 547 0
DWIDTH 27 0
BBX 32 36 0 0
BITMAP
00F000FC
00F000F8
00E001F0
01E003E0
01E007C0
01E00F80
01E01F00
01E03E00
01C07E00
03C0FC00
03C1F800
03C3F000
03C7E000
03C7C000
038F8000
079F8000
07BFC000
07FFC000
07FBE000
07F1E000
07E1F000
0FC0F000
0F80F800
0F807800
0F007800
0F003C00
0E003C00
1E003E00
1E001E00
1E001F00
1E000F00
1E000F80
1C000780
3C0007C0
3C0003C0
3C0003E0
ENDCHAR

STARTCHAR L
ENCODING 76
SWIDTH 456 0
DWIDTH 23 0
BBX 23 36 0 0
BITMAP
00F000
00F000
01E000
01E000
01E000
01E000
01E000
01E000
03C000
03C000
03C000
03C000
03C000
03C000
078000
078000
078000
078000
078000
078000
0F0000
0F0000
0F0000
0F0000
0F0000
0E0000
1E0000
1E0000
1E0000
1E0000
1E0000
1C0000
3FFFFC
3FFFF8
3FFFF8
3FFFF8
ENDCHAR

STARTCHAR M
ENCODING 77
SWIDTH 683 0
DWIDTH 34 0
BBX 37 36 0 0
BITMAP
00F80001F0
00F80003F0
00F80003E0
01F80007E0
01F80007E0
01F8000FE0
01DC000EE0
01DC001FC0
01DC001FC0
03DC001DC0
03DC003DC0
03DC003BC0
03DC007BC0
03DC007380
039E00F380
079E00E380
078E01E780
078E01C780
078E03C780
070E038700
0F0E078700
0F0F078F00
0F0F070F00
0F0F0F0F00
0F070E0F00
0E071E0E00
1E071C1E00
1E073C1E00
1E07381E00
1E07381E00
1E07701E00
1C03F01C00
3C03E03C00
3C03E03C00
3C03E03C00
3C03C03C00
ENDCHAR

STARTCHAR N
ENCODING 78
SWIDTH 592 0
DWIDTH 30 0
BBX 32 36 1 0
BITMAP
01E0003C
01F0003C
01F0003C
01F0003C
01F80038
03F80078
03F80078
03FC0078
03DC0078
039E0078
039E0070
078E00F0
078F00F0
078F00F0
078700F0
070780F0
0F0780E0
0F03C1E0
0F03C1E0
0F03C1E0
0F01E1E0
0E01E1C0
1E01E1C0
1E00F3C0
1E00F3C0
1E00F3C0
1E0073C0
1C007B80
3C003B80
3C003B80
3C003F80
3C001F80
38001F80
38001F00
78000F00
78000F00
ENDCHAR

STARTCHAR O
ENCODING 79
SWIDTH 638 0
DWIDTH 32 0
BBX 30 38 3 -1
BITMAP
0007F000
001FFC00
007FFF00
00FFFF80
01FC1FC0
03F007C0
07E003E0
07C001E0
0F8001F0
0F0000F0
1F0000F0
1E000078
1E000078
3C000078
3C000078
3C000078
38000078
78000078
78000078
78000078
78000078
78000078
780000F0
780000F0
780000F0
780001F0
3C0001E0
3C0003E0
3C0003C0
3E0007C0
1E000F80
1F001F80
0F803F00
07E0FE00
07FFFC00
01FFF800
00FFE000
003F8000
ENDCHAR

STARTCHAR P
ENCODING 80
SWIDTH 547 0
DWIDTH 27 0
BBX 29 36 1 0
BITMAP
01FFFE00
01FFFF80
01FFFFC0
01FFFFE0
01C003E0
03C001F0
03C000F0
03C000F0
03C000F0
03C000F0
078000F0
078000F0
078001E0
078001E0
078003E0
070007C0
0F001FC0
0FFFFF80
0FFFFF00
0FFFFC00
0FFFF000
0E000000
1E000000
1E000000
1E000000
1E000000
1E000000
1C000000
3C000000
3C000000
3C000000
3C000000
3C000000
38000000
78000000
78000000
ENDCHAR

STARTCHAR Q
ENCODING 81
SWIDTH 638 0
DWIDTH 32 0
BBX 30 41 3 -4
BITMAP
0007F000
001FFC00
007FFF00
00FFFF80
01FC1FC0
03F007C0
07E003E0
07C001E0
0F8001F0
0F0000F0
1F0000F0
1E000078
3E000078
3C000078
3C000078
3C000078
38000078
78000078
78000078
78000078
78000078
78000078
780000F0
780000F0
780000F0
780001F0
3C0001E0
3C0303E0
3C0383C0
3E03C7C0
1E03EF80
1F00FF80
0F80FF00
07E0FE00
07FFFC00
03FFFE00
00FFEF00
003F8F80
000007C0
00000380
00000180
ENDCHAR

STARTCHAR R
ENCODING 82
SWIDTH 592 0
DWIDTH 30 0
BBX 31 36 0 0
BITMAP
00FFFF80
00FFFFE0
00FFFFF0
01FFFFF8
01E000F8
01E0007C
01E0003C
01E0003C
01C0003C
03C0003C
03C0003C
03C0003C
03C00078
03C000F8
078001F8
078007F0
07FFFFE0
07FFFFC0
07FFFF00
07FFF800
0F00F800
0F007C00
0F003C00
0F001E00
0F001E00
0F000F00
1E000F00
1E000F80
1E000780
1E000780
1E0007C0
1E0003C0
3C0003C0
3C0003E0
3C0001E0
3C0001E0
ENDCHAR

STARTCHAR S
ENCODING 83
SWIDTH 547 0
DWIDTH 27 0
BBX 28 38 2 -1
BITMAP
000FE000
007FF800
00FFFE00
01FFFF00
03F03F00
03E00F80
03C00780
078007C0
078003C0
078003C0
078003C0
07800000
07C00000
03E00000
03F00000
01FC0000
00FF0000
007F8000
003FE000
000FF000
0003F800
0001FC00
00007E00
00003E00
00001F00
78000F00
38000F00
38000F00
3C000F00
3C000F00
3C001F00
3E001E00
1F003E00
1FC0FC00
0FFFF800
07FFF000
03FFE000
007F0000
ENDCHAR

STARTCHAR T
ENCODING 84
SWIDTH 501 0
DWIDTH 25 0
BBX 26 36 4 0
BITMAP
3FFFFF80
7FFFFF80
7FFFFF00
7FFFFF00
001E0000
003C0000
003C0000
003C0000
003C0000
003C0000
00380000
00780000
00780000
00780000
00780000
00780000
00700000
00F00000
00F00000
00F00000
00F00000
00F00000
00E00000
01E00000
01E00000
01E00000
01E00000
01E00000
01C00000
03C00000
03C00000
03C00000
03C00000
03C00000
07800000
07800000
ENDCHAR

STARTCHAR U
ENCODING 85
SWIDTH 592 0
DWIDTH 30 0
BBX 30 37 3 -1
BITMAP
078000F0
078000F0
078000F0
078000E0
070001E0
0F0001E0
0F0001E0
0F0001E0
0F0001E0
0F0001C0
0E0003C0
1E0003C0
1E0003C0
1E0003C0
1E0003C0
1E000380
1C000780
3C000780
3C000780
3C000780
3C000780
3C000F00
38000F00
78000F00
78000F00
78000F00
78001E00
78001E00
78001E00
7C003C00
3C007C00
3E00F800
1F83F800
1FFFF000
0FFFE000
03FF8000
00FE0000
ENDCHAR

STARTCHAR V
ENCODING 86
SWIDTH 547 0
DWIDTH 27 0
BBX 29 36 4 0
BITMAP
780001E0
780003C0
380003C0
380007C0
3C000780
3C000780
3C000F00
3C000F00
3C001E00
1C001E00
1E003C00
1E003C00
1E003800
1E007800
1E007800
0E00F000
0F00F000
0F01E000
0F01E000
0F03C000
0F03C000
07038000
07878000
07878000
078F0000
078F0000
079E0000
079E0000
039C0000
03BC0000
03F80000
03F80000
03F80000
03F00000
01F00000
01E00000
ENDCHAR

STARTCHAR W
ENCODING 87
SWIDTH 774 0
DWIDTH 39 0
BBX 41 36 4 0
BITMAP
78003C001E00
78003C001E00
78007E003C00
78007E003C00
7800FE003C00
7800FE007800
7800FE007800
7801FE00F000
7801FE00F000
7803DE00E000
3803DE01E000
38079E01E000
38079E03C000
3C079E03C000
3C0F1E078000
3C0F1E078000
3C1E1E078000
3C1E1E0F0000
3C3C0E0F0000
3C3C0E1E0000
3C3C0E1E0000
3C780E1C0000
3C780F3C0000
3CF00F3C0000
3CF00F780000
3DE00F780000
3DE00F700000
3DE00FF00000
3FC00FF00000
1FC00FE00000
1F800FE00000
1F800FC00000
1F000FC00000
1F000F800000
1F000F800000
1E000F800000
ENDCHAR

STARTCHAR X
ENCODING 88
SWIDTH 547 0
DWIDTH 27 0
BBX 36 36 -3 0
BITMAP
00F00007C0
00F0000F80
0078000F80
0078001F00
007C003E00
003C007C00
003E00FC00
001E00F800
001F01F000
000F03E000
000F87E000
000787C000
0007CF8000
0003DF0000
0003DF0000
0001FE0000
0001FC0000
0000F80000
0001F00000
0003F80000
0003F80000
0007FC0000
000FBC0000
001F1E0000
001F1E0000
003E1F0000
007C0F0000
00F80F8000
00F8078000
01F0078000
03E003C000
07C003C000
0FC001E000
0F8001E000
1F0001F000
3E0000F000
ENDCHAR

STARTCHAR Y
ENCODING 89
SWIDTH 547 0
DWIDTH 27 0
BBX 30 36 3 0
BITMAP
3C0000F0
3E0001F0
1E0003E0
1F0003E0
0F0007C0
0F000780
0F800F80
07801F00
07C01E00
03C03E00
03C07C00
01E07C00
01E0F800
01F1F000
00F1F000
00F3E000
007BC000
007FC000
007F8000
003F8000
003F0000
001E0000
001E0000
001E0000
003C0000
003C0000
003C0000
003C0000
003C0000
003C0000
00780000
00780000
00780000
00780000
00780000
00700000
ENDCHAR

STARTCHAR Z
ENCODING 90
SWIDTH 501 0
DWIDTH 25 0
BBX 29 36 -1 0
BITMAP
01FFFFE0
01FFFFE0
03FFFFE0
03FFFFE0
000007C0
00000780
00000F80
00001F00
00001E00
00003E00
00007C00
00007800
0000F800
0001F000
0001E000
0003E000
0007C000
00078000
000F8000
001F0000
003E0000
003C0000
007C0000
00F80000
00F00000
01F00000
03E00000
03C00000
07C00000
0F800000
0F000000
1F000000
3FFFFF00
3FFFFF00
3FFFFF00
3FFFFF00
ENDCHAR

STARTCHAR bracketleft
ENCODING 91
SWIDTH 228 0
DWIDTH 11 0
BBX 18 45 -1 -9
BITMAP
007F80
007F80
00FF80
00F000
00F000
00F000
00E000
00E000
01E000
01E000
01E000
01E000
01C000
01C000
03C000
03C000
03C000
038000
038000
038000
078000
078000
078000
070000
070000
070000
0F0000
0F0000
0F0000
0E0000
0E0000
0E0000
1E0000
1E0000
1E0000
1C0000
1C0000
3C0000
3C0000
3C0000
3C0000
380000
3FC000
7F8000
7F8000
ENDCHAR

STARTCHAR backslash
ENCODING 92
SWIDTH 228 0
DWIDTH 11 0
BBX 11 37 2 -1
BITMAP
3000
3800
3800
3800
3800
3800
3800
1800
1800
1C00
1C00
1C00
1C00
1C00
1C00
0C00
0E00
0E00
0E00
0E00
0E00
0E00
0E00
0600
0700
0700
0700
0700
0700
0700
0300
0380
0380
0380
0380
0380
0380
ENDCHAR

STARTCHAR bracketright
ENCODING 93
SWIDTH 228 0
DWIDTH 11 0
BBX 19 45 -4 -9
BITMAP
007F80
007F80
007F80
000780
000780
000700
000700
000F00
000F00
000F00
000F00
000E00
000E00
001E00
001E00
001E00
001C00
001C00
001C00
003C00
003C00
003C00
003800
003800
003800
007800
007800
007800
007000
007000
00F000
00F000
00F000
00F000
00E000
00E000
01E000
01E000
01E000
01E000
01C000
01C000
3FC000
3FC000
3FC000
ENDCHAR

STARTCHAR asciicircum
ENCODING 94
SWIDTH 385 0
DWIDTH 19 0
BBX 20 20 1 16
BITMAP
00F000
00F000
00F800
01F800
01F800
01FC00
03DC00
039C00
039E00
078E00
070E00
070F00
0F0700
0E0780
1E0780
1E0380
1C03C0
3C03C0
3C01C0
3801E0
ENDCHAR

STARTCHAR underscore
ENCODING 95
SWIDTH 456 0
DWIDTH 23 0
BBX 29 3 -3 -6
BITMAP
3FFFFFE0
3FFFFFE0
3FFFFFE0
ENDCHAR

STARTCHAR quoteleft
ENCODING 96
SWIDTH 182 0
DWIDTH 9 0
BBX 9 12 4 24
BITMAP
0200
0600
0C00
1800
1800
1000
3000
3C00
3C00
3C00
3C00
7C00
ENDCHAR

STARTCHAR a
ENCODING 97
SWIDTH 456 0
DWIDTH 23 0
BBX 22 28 1 -1
BITMAP
003E00
00FFC0
01FFE0
03FFF0
07C0F0
0F8078
0F0078
0E0078
020078
000078
000078
001FF0
03FFF0
0FFFF0
1FFEF0
3F80F0
3E00E0
3C00E0
7801E0
7801E0
7801E0
7803E0
7807E0
3C0FE0
3E3FE0
1FFDE0
0FF1E0
07E000
ENDCHAR

STARTCHAR b
ENCODING 98
SWIDTH 456 0
DWIDTH 23 0
BBX 23 37 0 -1
BITMAP
01E000
01E000
01E000
01C000
01C000
03C000
03C000
03C000
038000
038700
039FC0
07BFF0
07FFF0
07F0F8
07C078
07C078
07803C
0F003C
0F003C
0F003C
0E003C
0E003C
0E003C
1E003C
1E0038
1E0078
1E0078
1E0078
1E00F0
3E00F0
3E01E0
3F01E0
3B87C0
3BFF80
79FF00
70FE00
003800
ENDCHAR

STARTCHAR c
ENCODING 99
SWIDTH 410 0
DWIDTH 20 0
BBX 21 28 1 -1
BITMAP
003C00
00FF80
03FFC0
07FFE0
07C3E0
0F01E0
1F00F0
1E00F0
1C00F0
3C0000
3C0000
3C0000
380000
780000
780000
780000
780000
780000
7801C0
7803C0
7803C0
3C0780
3C0F80
3E1F00
1FFE00
0FFC00
07F800
01E000
ENDCHAR

STARTCHAR d
ENCODING 100
SWIDTH 456 0
DWIDTH 23 0
BBX 25 37 1 -1
BITMAP
00000E00
00000E00
00000E00
00001E00
00001E00
00001E00
00001C00
00001C00
00001C00
00383C00
00FE3C00
03FF3C00
03FFB800
07C3B800
0F01F800
0F00F800
1E00F800
1E00F800
3C00F000
3C00F000
3C00F000
3800F000
7800F000
7800F000
7800E000
7800E000
7801E000
7801E000
7801E000
3803E000
3C07C000
3C07C000
3E1FC000
1FFDC000
0FFBC000
07F3C000
01C00000
ENDCHAR

STARTCHAR e
ENCODING 101
SWIDTH 456 0
DWIDTH 23 0
BBX 23 28 1 -1
BITMAP
007F00
00FFC0
03FFE0
07E3F0
0780F0
0F0070
0F0078
1E0078
1E0038
3C0038
3C0038
3C0038
3FFFF8
7FFFF8
7FFFF8
780000
780000
780000
7800C0
7800F0
3C01E0
3C01E0
3E03C0
1F0FC0
1FFF80
0FFF00
07FC00
00F000
ENDCHAR

STARTCHAR f
ENCODING 102
SWIDTH 228 0
DWIDTH 11 0
BBX 18 37 0 0
BITMAP
003F00
007F80
00FF00
00FF00
01F000
01E000
01E000
01C000
01C000
01C000
03C000
1FFC00
1FFC00
1FF800
038000
038000
078000
078000
078000
070000
070000
070000
0F0000
0F0000
0F0000
0E0000
0E0000
0E0000
1E0000
1E0000
1E0000
1C0000
1C0000
1C0000
3C0000
3C0000
3C0000
ENDCHAR

STARTCHAR g
ENCODING 103
SWIDTH 456 0
DWIDTH 23 0
BBX 25 38 0 -11
BITMAP
001E0000
007F8E00
01FFCE00
01FFCE00
03E1FE00
0780FC00
0F007C00
0F007C00
0E003C00
1E003C00
1E003C00
1C003800
1C003800
3C003800
3C003800
3C007800
3C007800
3C007000
3C00F000
1C00F000
1E01F000
1E03F000
0F07F000
0FFEE000
07FEE000
03F9E000
00E1E000
0001E000
0001E000
4001C000
7803C000
7803C000
78078000
3C0F8000
3FFF0000
1FFE0000
0FFC0000
01F00000
ENDCHAR

STARTCHAR h
ENCODING 104
SWIDTH 456 0
DWIDTH 23 0
BBX 23 36 0 0
BITMAP
00E000
01E000
01E000
01E000
01C000
01C000
01C000
03C000
03C000
03C3C0
038FF0
039FF8
03BFF8
07F87C
07E03C
07C03C
07C03C
07803C
07803C
0F0038
0F0038
0F0078
0E0078
0E0078
0E0078
1E0070
1E0070
1E00F0
1C00F0
1C00F0
1C00F0
3C00E0
3C00E0
3C01E0
3801E0
3801E0
ENDCHAR

STARTCHAR i
ENCODING 105
SWIDTH 182 0
DWIDTH 9 0
BBX 13 36 0 0
BITMAP
01E0
01E0
01E0
01C0
01C0
0000
0000
0000
0000
0000
0380
0380
0780
0780
0780
0700
0700
0700
0F00
0F00
0F00
0E00
0E00
0E00
1E00
1E00
1E00
1C00
1C00
1C00
3C00
3C00
3C00
3800
3800
3800
ENDCHAR

STARTCHAR j
ENCODING 106
SWIDTH 182 0
DWIDTH 9 0
BBX 19 47 -6 -11
BITMAP
000780
000780
000780
000700
000700
000000
000000
000000
000000
000000
000E00
000E00
001E00
001E00
001E00
001C00
001C00
001C00
003C00
003C00
003C00
003800
003800
007800
007800
007800
007800
007000
007000
00F000
00F000
00F000
00F000
00E000
00E000
01E000
01E000
01E000
01E000
01C000
03C000
03C000
07C000
3F8000
7F8000
7F0000
3E0000
ENDCHAR

STARTCHAR k
ENCODING 107
SWIDTH 410 0
DWIDTH 20 0
BBX 24 36 0 0
BITMAP
00E000
01E000
01E000
01E000
01C000
01C000
01C000
03C000
03C000
03C000
03807C
038078
0780F0
0781E0
0783C0
0787C0
070F80
070F00
0F1E00
0F3C00
0F7C00
0FFC00
0FFE00
0FDE00
1F9E00
1F0F00
1E0F00
1C0F00
1C0780
1C0780
3C0780
3C03C0
3C03C0
3803C0
3801E0
3801E0
ENDCHAR

STARTCHAR l
ENCODING 108
SWIDTH 182 0
DWIDTH 9 0
BBX 12 36 0 0
BITMAP
01E0
01E0
01C0
01C0
01C0
03C0
03C0
03C0
0380
0380
0380
0780
0780
0780
0700
0700
0700
0F00
0F00
0F00
0E00
0E00
0E00
1E00
1E00
1E00
1C00
1C00
1C00
3C00
3C00
3C00
3800
3800
7800
7800
ENDCHAR

STARTCHAR m
ENCODING 109
SWIDTH 683 0
DWIDTH 34 0
BBX 35 27 -1 0
BITMAP
0003C01E00
03C7F07F00
03DFF1FF80
03BFF9FFC0
03B87B87C0
03F07F03C0
07E03E03C0
07C03C03C0
07803C03C0
0780780380
0780780380
0F00780780
0F00700780
0F00700780
0F00F00780
0E00F00700
0E00F00700
1E00F00F00
1E00E00F00
1E00E00F00
1E01E00F00
1C01E00E00
1C01E00E00
3C01E00E00
3C01C01E00
3C01C01E00
3803C01E00
ENDCHAR

STARTCHAR n
ENCODING 110
SWIDTH 456 0
DWIDTH 23 0
BBX 23 27 0 0
BITMAP
0001C0
038FF0
039FF8
03BFF8
07F87C
07E03C
07C03C
07C03C
07803C
07803C
0F0038
0F0038
0F0078
0F0078
0E0078
0E0078
1E0070
1E0070
1E00F0
1C00F0
1C00F0
3C00F0
3C00E0
3C00E0
3C01E0
3801E0
3801E0
ENDCHAR

STARTCHAR o
ENCODING 111
SWIDTH 456 0
DWIDTH 23 0
BBX 23 28 1 -1
BITMAP
007F80
00FFC0
03FFE0
07F3F0
07C0F8
0F8078
0F0078
1E003C
1E003C
3C003C
3C003C
3C003C
38003C
78003C
78003C
780038
780078
780078
780078
7800F0
3800F0
3C01F0
3C03E0
1E07C0
1F9FC0
0FFF80
07FE00
01FC00
ENDCHAR

STARTCHAR p
ENCODING 112
SWIDTH 456 0
DWIDTH 23 0
BBX 25 37 -2 -10
BITMAP
0001E000
00E7F800
01EFF800
01DFFC00
01F83E00
01F01E00
01F01E00
01E00F00
03C00F00
03C00F00
03C00F00
03800F00
03800F00
03800F00
07800F00
07800E00
07800E00
07801E00
07801E00
07801C00
0F803C00
0F807800
0FC07800
0EE1F000
0EFFE000
0E7FC000
1E3F8000
1E0E0000
1E000000
1C000000
1C000000
3C000000
3C000000
3C000000
3C000000
38000000
38000000
ENDCHAR

STARTCHAR q
ENCODING 113
SWIDTH 456 0
DWIDTH 23 0
BBX 23 37 1 -10
BITMAP
003800
00FE3C
01FF3C
03FFB8
07C3B8
0F01F8
0F00F8
1E00F8
1E00F0
3C00F0
3C00F0
3C00F0
3800F0
7800F0
7800E0
7800E0
7800E0
7801E0
7801E0
7801E0
3803C0
3C07C0
3C07C0
3E1FC0
1FFFC0
0FFBC0
07F380
01C380
000380
000780
000780
000780
000700
000700
000700
000F00
000F00
ENDCHAR

STARTCHAR r
ENCODING 114
SWIDTH 273 0
DWIDTH 14 0
BBX 19 27 0 0
BITMAP
000F80
039F80
03BF80
07BF00
077100
07E000
07C000
078000
078000
0F0000
0F0000
0F0000
0F0000
0E0000
0E0000
1E0000
1E0000
1C0000
1C0000
1C0000
3C0000
3C0000
3C0000
380000
380000
380000
780000
ENDCHAR

STARTCHAR s
ENCODING 115
SWIDTH 410 0
DWIDTH 20 0
BBX 22 28 0 -1
BITMAP
007F00
01FFC0
03FFC0
03E7E0
0781F0
0700F0
0700F0
070070
078060
078000
07E000
03F800
01FC00
00FF00
007F80
001FC0
0007C0
0003E0
3801E0
3C01E0
3C01E0
3C01E0
3C01C0
1E03C0
1F8FC0
0FFF80
07FF00
01FC00
ENDCHAR

STARTCHAR t
ENCODING 116
SWIDTH 228 0
DWIDTH 11 0
BBX 13 36 1 -1
BITMAP
0040
00C0
03C0
0380
0380
0780
0780
0780
0700
3FF0
3FF0
3FF0
0F00
0F00
0F00
0E00
0E00
1E00
1E00
1E00
1C00
1C00
1C00
3C00
3C00
3C00
3800
3800
3800
7800
7800
7800
7F80
7F00
3F00
0F00
ENDCHAR

STARTCHAR u
ENCODING 117
SWIDTH 456 0
DWIDTH 23 0
BBX 23 27 1 -1
BITMAP
0F0038
0F0038
0F0078
0E0078
0E0078
0E0078
1E0070
1E0070
1E00F0
1C00F0
1C00F0
1C00E0
3C00E0
3C00E0
3C01E0
3801E0
3801E0
3803C0
7803C0
7807C0
7807C0
780FC0
7C3FC0
3FFB80
3FF380
1FE380
070000
ENDCHAR

STARTCHAR v
ENCODING 118
SWIDTH 410 0
DWIDTH 20 0
BBX 22 26 2 0
BITMAP
780078
7800F0
3800F0
3800E0
3801E0
3C01C0
3C03C0
3C0380
3C0780
1C0700
1C0F00
1C0F00
1C1E00
1E1E00
1E1C00
1E3C00
1E3800
0E7800
0E7000
0EF000
0EE000
0EE000
0FC000
0FC000
078000
078000
ENDCHAR

STARTCHAR w
ENCODING 119
SWIDTH 592 0
DWIDTH 30 0
BBX 31 26 2 0
BITMAP
7807C03C
7807C038
3807C078
380FC078
380FC070
380FC0F0
381DC0E0
381DC1E0
3C1DC1E0
3C39C1C0
3C39C3C0
3C79C380
3C71C380
3C71C780
1CF1C700
1CE1CF00
1CE1CE00
1DE1CE00
1DC1FE00
1DC1FC00
1F80FC00
1F80F800
1F80F800
1F00F800
1F00F000
1F00F000
ENDCHAR

STARTCHAR x
ENCODING 120
SWIDTH 410 0
DWIDTH 20 0
BBX 26 26 -2 0
BITMAP
03C01F00
01E01E00
01E03C00
01E07C00
00F07800
00F0F000
0078F000
0079E000
007BC000
003FC000
003F8000
001F0000
001F0000
001E0000
003F0000
007F0000
007F8000
00F78000
01E38000
01E3C000
03C3C000
07C1E000
0F81E000
0F00F000
1F00F000
3E00F000
ENDCHAR

STARTCHAR y
ENCODING 121
SWIDTH 410 0
DWIDTH 20 0
BBX 26 36 -1 -10
BITMAP
07000F00
07800E00
07801E00
07801C00
07803C00
03803800
03807800
03807800
0380F000
03C0F000
03C1E000
03C1E000
03C3C000
01C3C000
01C38000
01C78000
01C70000
01CF0000
01EE0000
01FE0000
00FC0000
00FC0000
00FC0000
00F80000
00F80000
00F00000
00F00000
00E00000
01E00000
01C00000
03C00000
07800000
7F800000
7F000000
7E000000
7C000000
ENDCHAR

STARTCHAR z
ENCODING 122
SWIDTH 410 0
DWIDTH 20 0
BBX 24 26 -1 0
BITMAP
03FFFC
07FFFC
07FFFC
07FF78
0000F0
0001F0
0003E0
0007C0
000780
000F80
001F00
003E00
003E00
007C00
00F800
00F000
01F000
03E000
07C000
078000
0F0000
1F0000
3FFFE0
3FFFE0
3FFFE0
3FFFE0
ENDCHAR

STARTCHAR braceleft
ENCODING 123
SWIDTH 274 0
DWIDTH 14 0
BBX 19 47 1 -10
BITMAP
0003C0
000FC0
001F80
001F80
003C00
003800
007800
007000
007000
007000
007000
00F000
00F000
00E000
00E000
00E000
01E000
01C000
01C000
038000
078000
3F0000
3E0000
380000
3E0000
3E0000
0F0000
070000
070000
070000
070000
070000
0F0000
0F0000
0F0000
0E0000
0E0000
1E0000
1E0000
1E0000
1C0000
1C0000
1E0000
1FC000
1F8000
0F8000
078000
ENDCHAR

STARTCHAR bar
ENCODING 124
SWIDTH 213 0
DWIDTH 11 0
BBX 7 47 3 -11
BITMAP
38
38
38
38
38
38
38
38
38
38
38
38
38
38
38
38
38
38
38
38
38
38
38
38
38
38
38
38
38
38
38
38
38
38
38
38
38
38
38
38
38
38
38
38
38
38
38
ENDCHAR

STARTCHAR braceright
ENCODING 125
SWIDTH 274 0
DWIDTH 14 0
BBX 19 47 -5 -10
BITMAP
003C00
003E00
003F00
007F00
000F00
000700
000700
000700
000F00
000F00
000F00
000E00
001E00
001E00
001E00
001E00
001C00
001C00
001C00
001E00
001E00
000F80
000F80
000380
000F80
001F80
003C00
003800
007800
007000
007000
00F000
00E000
00E000
00E000
01E000
01E000
01C000
01C000
01C000
03C000
038000
078000
3F8000
3F0000
3E0000
780000
ENDCHAR

STARTCHAR asciitilde
ENCODING 126
SWIDTH 479 0
DWIDTH 24 0
BBX 23 8 2 14
BITMAP
0FC004
1FF00C
3FFC1C
7FFFFC
7FFFFC
707FFC
601FF8
4007E0
ENDCHAR

STARTCHAR space
ENCODING 160
SWIDTH 228 0
DWIDTH 14 0
BBX 0 0 0 0
BITMAP
ENDCHAR

STARTCHAR Aogonek
ENCODING 161
SWIDTH 547 0
DWIDTH 27 0
BBX 32 47 -2 -11
BITMAP
00003C00
00007E00
00007E00
0000FE00
0000EE00
0001EE00
0001EE00
0003CE00
0003CF00
00078F00
00078F00
00078F00
000F0F00
000F0F00
001E0700
001E0780
003C0780
003C0780
00780780
00780780
00F80780
00F00780
01FFFF80
01FFFFC0
01FFFFC0
03FFFFC0
03C003C0
078003C0
078003C0
0F0001C0
0F0001E0
1F0001E0
1E0001E0
3E0001E0
3C0001E0
7C0001E0
000001C0
00000180
00000180
00000180
00000380
00000380
00000380
000003C6
000001FC
000001FC
000000F8
ENDCHAR

STARTCHAR afii240
ENCODING 162
SWIDTH 500 0
DWIDTH 25 0
BBX 29 26 0 0
BITMAP
01E007E0
01E00FC0
01E01F80
03E03F00
03E07E00
03C0F800
03C1F000
03C3E000
07C7C000
07CF8000
079F8000
07BF8000
07FFC000
0FF3C000
0FE3E000
0FC3E000
0F81E000
0F01F000
1F00F000
1E00F800
1E00F800
1E007C00
3E007C00
3E007C00
3C003E00
3C003E00
ENDCHAR

STARTCHAR Rcommaaccent
ENCODING 163
SWIDTH 592 0
DWIDTH 30 0
BBX 31 47 0 -11
BITMAP
00FFFF80
00FFFFE0
00FFFFF0
01FFFFF8
01E000F8
01E0007C
01E0003C
01E0003C
01C0003C
03C0003C
03C0003C
03C0003C
03C00078
03C00078
038001F8
078007F0
07FFFFE0
07FFFFC0
07FFFF00
07FFF800
0700F800
0F003C00
0F003C00
0F001E00
0F001E00
0F000F00
1E000F00
1E000780
1E000780
1E000780
1E0007C0
1E0003C0
3C0003C0
3C0003E0
3C0001E0
3C0001E0
00000000
00000000
00000000
001C0000
001C0000
001C0000
000C0000
00080000
00180000
00300000
00600000
ENDCHAR

STARTCHAR currency
ENCODING 164
SWIDTH 456 0
DWIDTH 23 0
BBX 23 23 1 6
BITMAP
180030
3C7C78
3FFF78
1FFFF0
1FFFF0
0FC7E0
0F01E0
0E00F0
1E00F0
1C0070
1C0070
1C0070
1C0070
1E0070
1E00F0
0E00F0
0F01E0
0FC7E0
1FFFF0
1FFFF8
3DFF78
3C7C78
180030
ENDCHAR

STARTCHAR Itilde
ENCODING 165
SWIDTH 228 0
DWIDTH 11 0
BBX 18 45 1 0
BITMAP
07C380
07F380
0FFF00
0E7F00
0C1E00
000000
000000
000000
000000
01E000
01E000
01E000
01E000
01E000
03C000
03C000
03C000
03C000
03C000
03C000
078000
078000
078000
078000
078000
078000
0F0000
0F0000
0F0000
0F0000
0F0000
0F0000
1E0000
1E0000
1E0000
1E0000
1E0000
1C0000
3C0000
3C0000
3C0000
3C0000
3C0000
380000
780000
ENDCHAR

STARTCHAR Lcommaaccent
ENCODING 166
SWIDTH 456 0
DWIDTH 23 0
BBX 23 47 0 -11
BITMAP
00F000
00F000
01E000
01E000
01E000
01E000
01E000
01E000
03C000
03C000
03C000
03C000
03C000
03C000
078000
078000
078000
078000
078000
078000
0F0000
0F0000
0F0000
0F0000
0F0000
0E0000
1E0000
1E0000
1E0000
1E0000
1E0000
1C0000
3FFFFC
3FFFF8
3FFFF8
3FFFF8
000000
000000
000000
007000
007000
00F000
003000
006000
006000
01C000
018000
ENDCHAR

STARTCHAR section
ENCODING 167
SWIDTH 456 0
DWIDTH 23 0
BBX 24 48 1 -11
BITMAP
001FC0
007FF0
007FF0
00F8F8
00E078
01E03C
01C03C
01C01C
01C010
01C000
01E000
00E000
00F000
00F800
03FC00
07FE00
071F00
0E1F80
0E0FC0
1C07E0
1C03E0
1C01F0
1C00F8
1E0078
1E0078
0F0038
0F8038
07C078
07E078
03F0F0
01F1F0
00FBE0
007FC0
003F00
001E00
000F00
000780
000780
000380
780380
780380
780380
3C0780
3E0780
1F1F00
0FFE00
07FC00
03F800
ENDCHAR

STARTCHAR hungarumlaut
ENCODING 168
SWIDTH 273 0
DWIDTH 14 0
BBX 18 7 2 29
BITMAP
07CF00
079F00
0F1E00
1E3C00
1C3800
3C7000
386000
ENDCHAR

STARTCHAR Scaron
ENCODING 169
SWIDTH 547 0
DWIDTH 27 0
BBX 28 47 2 -1
BITMAP
000E0F00
00071E00
00073C00
00073800
0003F800
0003F000
0003E000
00000000
00000000
000FE000
003FF800
00FFFE00
01FFFF00
01F03F00
03E00F80
03C00780
078003C0
078003C0
078003C0
078003C0
07800000
07C00000
03E00000
03F00000
01FC0000
00FF0000
007F8000
003FE000
000FF000
0003F800
0001FC00
00007E00
00003E00
00001F00
78000F00
38000F00
38000F00
3C000F00
3C000F00
3C001F00
3E001E00
1F003E00
1FC0FC00
0FFFF800
07FFF000
03FFE000
007F0000
ENDCHAR

STARTCHAR Emacron
ENCODING 170
SWIDTH 547 0
DWIDTH 27 0
BBX 31 43 0 0
BITMAP
0007FFC0
0007FF80
0007FF80
00000000
00000000
00000000
00000000
00FFFFF8
00FFFFF8
00FFFFF8
01FFFFF8
01E00000
01E00000
01E00000
01E00000
01C00000
03C00000
03C00000
03C00000
03C00000
03C00000
03800000
07FFFFC0
07FFFFC0
07FFFFC0
07FFFF80
07800000
07000000
0F000000
0F000000
0F000000
0F000000
0F000000
0E000000
1E000000
1E000000
1E000000
1E000000
1E000000
1FFFFF80
3FFFFF80
3FFFFF80
3FFFFF00
ENDCHAR

STARTCHAR Gcommaaccent
ENCODING 171
SWIDTH 638 0
DWIDTH 32 0
BBX 30 48 3 -11
BITMAP
0003F800
001FFE00
007FFF00
00FFFF80
01FC0FC0
03F007E0
03E003E0
07C001F0
0F8000F0
0F0000F0
1F0000F0
1E000070
1E000000
3C000000
3C000000
3C000000
3C000000
38000000
78000000
7803FFE0
7803FFE0
7803FFE0
7803FFE0
780001E0
780001C0
780003C0
780003C0
7C0003C0
3C0003C0
3C0003C0
3E000380
1F000780
1F801F80
0FC0FF80
07FFFF00
03FFFC00
01FFF000
003F8000
00000000
00000000
000E0000
000E0000
001E0000
001C0000
000C0000
000C0000
00180000
00300000
ENDCHAR

STARTCHAR afii237
ENCODING 172
SWIDTH 614 0
DWIDTH 31 0
BBX 33 36 4 0
BITMAP
1FFFFFFE00
1FFFFFFE00
1FFFFFFE00
3FFFFFFE00
0003E00000
0003C00000
0007C00000
0007C00000
0007C00000
0007C00000
0007800000
000F800000
000F800000
000F800000
000F800000
000F000000
001F000000
3FFFFF8000
3FFFFF0000
3FFFFF0000
001E000000
003E000000
003E000000
003E000000
003E000000
003C000000
007C000000
007C000000
007C000000
0078000000
0078000000
00F8000000
00F8000000
00F8000000
00F0000000
00F0000000
ENDCHAR

STARTCHAR hyphen
ENCODING 173
SWIDTH 273 0
DWIDTH 14 0
BBX 15 4 0 11
BITMAP
1FFC
3FF8
3FF8
3FF8
ENDCHAR

STARTCHAR Zcaron
ENCODING 174
SWIDTH 501 0
DWIDTH 25 0
BBX 29 45 -1 0
BITMAP
00070F00
00039E00
00039C00
0003FC00
0001F800
0001F000
00000000
00000000
00000000
01FFFFE0
01FFFFE0
03FFFFE0
03FFFFE0
000007C0
00000780
00000F80
00001F00
00001E00
00003E00
00007C00
00007800
0000F800
0001F000
0001E000
0003E000
0007C000
00078000
000F8000
001F0000
003E0000
003C0000
007C0000
00F80000
00F00000
01F00000
03E00000
03C00000
07C00000
0F800000
0F000000
1F000000
3FFFFF00
3FFFFF00
3FFFFF00
3FFFFF00
ENDCHAR

STARTCHAR macron
ENCODING 175
SWIDTH 273 0
DWIDTH 14 0
BBX 16 3 3 30
BITMAP
3FFC
7FFC
7FFC
ENDCHAR

STARTCHAR degree
ENCODING 176
SWIDTH 328 0
DWIDTH 16 0
BBX 15 14 4 23
BITMAP
0380
0FE0
1FF0
1C70
3838
3018
3018
3018
3018
3838
1C70
1FF0
0FE0
0380
ENDCHAR

STARTCHAR aogonek
ENCODING 177
SWIDTH 456 0
DWIDTH 23 0
BBX 24 37 1 -11
BITMAP
003F00
00FFC0
03FFE0
03FFF0
07C0F0
0F0078
0F0078
0E0078
000078
000078
0000F8
007FF0
07FFF0
0FFFF0
1FE0F0
3E00F0
3C00E0
7800E0
7801E0
7801E0
7803E0
7807E0
3C0FE0
3E1FE0
1FFDE0
1FF9E0
07E1E0
000180
000180
000180
000380
000380
000380
0003C4
0001FC
0001FC
0000F8
ENDCHAR

STARTCHAR ogonek
ENCODING 178
SWIDTH 273 0
DWIDTH 14 0
BBX 11 12 1 -11
BITMAP
1800
3800
3000
3000
3000
7000
7000
7000
7980
3F80
3F80
1F00
ENDCHAR

STARTCHAR rcommaaccent
ENCODING 179
SWIDTH 273 0
DWIDTH 14 0
BBX 20 38 -1 -11
BITMAP
0007C0
01CFC0
01DFC0
03DF80
03B880
03F000
03E000
03C000
03C000
078000
078000
078000
070000
070000
070000
0F0000
0F0000
0E0000
0E0000
0E0000
0E0000
1E0000
1E0000
1C0000
1C0000
1C0000
1C0000
000000
000000
000000
1E0000
1C0000
1C0000
0C0000
0C0000
180000
380000
200000
ENDCHAR

STARTCHAR acute
ENCODING 180
SWIDTH 273 0
DWIDTH 14 0
BBX 12 7 5 29
BITMAP
07C0
0780
0F00
0E00
1E00
1C00
3800
ENDCHAR

STARTCHAR itilde
ENCODING 181
SWIDTH 182 0
DWIDTH 9 0
BBX 17 35 0 0
BITMAP
0F0600
1FCE00
3FFC00
39FC00
307800
000000
000000
000000
000000
038000
038000
078000
078000
078000
070000
070000
070000
0F0000
0F0000
0F0000
0E0000
0E0000
0E0000
1E0000
1E0000
1E0000
1C0000
1C0000
1C0000
3C0000
3C0000
3C0000
380000
380000
380000
ENDCHAR

STARTCHAR lcommaaccent
ENCODING 182
SWIDTH 182 0
DWIDTH 9 0
BBX 14 47 -2 -11
BITMAP
0078
0078
0078
0070
0070
00F0
00F0
00F0
00F0
00E0
00E0
01E0
01E0
01E0
01C0
01C0
01C0
03C0
03C0
03C0
0380
0380
0380
0780
0780
0780
0700
0700
0700
0F00
0F00
0F00
0E00
0E00
1E00
1E00
0000
0000
0000
1C00
1C00
1C00
0C00
0800
1800
3000
6000
ENDCHAR

STARTCHAR caron
ENCODING 183
SWIDTH 273 0
DWIDTH 14 0
BBX 15 7 4 29
BITMAP
3878
38F0
39E0
1DC0
1FC0
1F80
0F00
ENDCHAR

STARTCHAR commaaccent
ENCODING 184
SWIDTH 333 0
DWIDTH 17 0
BBX 8 8 4 -11
BITMAP
1C
1C
1C
0C
08
18
30
60
ENDCHAR

STARTCHAR scaron
ENCODING 185
SWIDTH 410 0
DWIDTH 20 0
BBX 23 37 0 -1
BITMAP
003878
0038F0
001CE0
001DC0
001F80
000F80
000000
000000
000000
007F00
00FFC0
03FFC0
03E7E0
0781F0
0700F0
0700F0
070070
078060
07C000
07E000
03F800
01FC00
00FF00
007F80
001FC0
0007C0
0003E0
3C01E0
3C01E0
3C01E0
3C01E0
1E01C0
1F03C0
1F8FC0
0FFF80
07FF00
01FC00
ENDCHAR

STARTCHAR emacron
ENCODING 186
SWIDTH 456 0
DWIDTH 23 0
BBX 23 35 1 -1
BITMAP
007FFC
007FF8
007FF8
000000
000000
000000
000000
007F00
00FFC0
03FFE0
03E3E0
0780F0
0F0070
0F0078
1E0078
1E0038
3C0038
3C0038
3C0038
3FFFF8
7FFFF8
7FFFF8
780000
780000
780000
7800C0
7800F0
3C01E0
3C01E0
3E03C0
1F0FC0
1FFF80
0FFF00
07FC00
00F000
ENDCHAR

STARTCHAR gcommaaccent
ENCODING 187
SWIDTH 456 0
DWIDTH 23 0
BBX 25 48 0 -11
BITMAP
0000C000
00018000
00030000
00030000
00038000
00078000
00070000
00070000
00000000
00000000
001E0000
007F8E00
00FFCE00
01FFCE00
03E1FE00
0780FE00
07807C00
0F007C00
0E003C00
1E003C00
1E003C00
1C003800
1C003800
3C003800
3C003800
3C007800
3C007800
3C007000
3C00F000
3C00F000
1E01F000
1E03F000
1F07F000
0FFFE000
07FEE000
07FDE000
01F9E000
0001E000
0001E000
0001C000
7803C000
7803C000
78078000
3C0F8000
3FFF0000
1FFE0000
0FFC0000
01F00000
ENDCHAR

STARTCHAR afii253
ENCODING 188
SWIDTH 280 0
DWIDTH 14 0
BBX 19 36 -1 -1
BITMAP
000600
000E00
003C00
003C00
003C00
007C00
007C00
007800
007800
07FF80
07FF80
07FF80
00F000
00F000
00F000
01F000
01F000
01E000
01E000
03E000
1FFF00
3FFE00
3FFE00
03C000
03C000
07C000
078000
078000
078000
078000
0F8000
0F8000
0FF800
07F800
07F800
01F800
ENDCHAR

STARTCHAR afii238
ENCODING 189
SWIDTH 723 0
DWIDTH 36 0
BBX 36 38 1 -1
BITMAP
00001FE000
007C7FF800
0078FFFE00
00FBFFFF00
00FFF07F00
00FF801F80
00FF000FC0
00FE0007C0
01FC0007C0
01F80007E0
01F00003E0
01F00003E0
01F00003E0
03E00003E0
03E00003E0
03E00003E0
03E00003E0
03C00003E0
07C00003E0
07C00003E0
07C00007C0
07C00007C0
07800007C0
0F800007C0
0F800007C0
0F80000F80
0F80000F80
0F00000F80
1F00001F00
1F00001F00
1F00003E00
1E00007E00
1E0000FC00
3E00C3FC00
3E01FFF800
3E01FFF000
3C03FFE000
00007F0000
ENDCHAR

STARTCHAR zcaron
ENCODING 190
SWIDTH 410 0
DWIDTH 20 0
BBX 24 36 -1 0
BITMAP
001C3C
001C78
001C70
000EE0
000FE0
000FC0
000780
000000
000000
000000
03FFFC
07FFFC
07FFFC
07FFF8
0000F0
0001F0
0003E0
0007C0
000780
000F80
001F00
001E00
003E00
007C00
00F800
00F000
01F000
03E000
07C000
078000
0F8000
1F0000
3FFFF0
3FFFE0
3FFFE0
3FFFE0
ENDCHAR

STARTCHAR afii254
ENCODING 191
SWIDTH 556 0
DWIDTH 28 0
BBX 28 38 0 -11
BITMAP
00007C00
01E1FF00
01E7FF80
03CFFFC0
03DE07C0
03F807C0
03F003C0
03E003C0
07E003C0
07C007C0
07C007C0
07800780
0F800780
0F800780
0F000F80
0F000F80
0F000F00
1F000F00
1F000F00
1E001F00
1E001F00
1E001E00
3E001E00
3E001E00
3C003E00
3C003E00
3C003C00
00003C00
00003C00
00007C00
00007C00
00007800
0000F800
0001F800
001FF000
001FF000
001FE000
001F8000
ENDCHAR

STARTCHAR Amacron
ENCODING 192
SWIDTH 547 0
DWIDTH 27 0
BBX 29 43 -2 0
BITMAP
0003FFE0
0003FFE0
0003FFC0
00000000
00000000
00000000
00000000
00003E00
00007E00
00007E00
0000FE00
0000EE00
0001EE00
0001EE00
0003CE00
0003CF00
0003CF00
00078F00
00078F00
000F0F00
000F0700
001E0700
001E0780
003C0780
003C0780
007C0780
00780780
00F80780
00F00380
01FFFFC0
01FFFFC0
01FFFFC0
03FFFFC0
03C003C0
078003C0
078003C0
0F8001C0
0F0001E0
1F0001E0
1E0001E0
3E0001E0
3C0001E0
7C0001E0
ENDCHAR

STARTCHAR Aacute
ENCODING 193
SWIDTH 547 0
DWIDTH 27 0
BBX 29 45 -2 0
BITMAP
00000F00
00001F00
00001E00
00003C00
00003800
00007000
00000000
00000000
00000000
00003E00
00007E00
00007E00
0000FE00
0000EE00
0001EE00
0001EE00
0003CE00
0003CF00
0003CF00
00078F00
00078F00
000F0F00
000F0700
001E0700
001E0780
003C0780
003C0780
007C0780
00780780
00F80780
00F00380
01FFFFC0
01FFFFC0
01FFFFC0
03FFFFC0
03C003C0
078003C0
078003C0
0F8001C0
0F0001E0
1F0001E0
1E0001E0
3E0001E0
3C0001E0
7C0001E0
ENDCHAR

STARTCHAR Acircumflex
ENCODING 194
SWIDTH 547 0
DWIDTH 27 0
BBX 29 45 -2 0
BITMAP
00001F00
00003F00
00007700
0000F780
0001E380
0001C380
00000000
00000000
00000000
00003E00
00007E00
00007E00
0000FE00
0000EE00
0001EE00
0001EE00
0003CE00
0003CF00
0003CF00
00078F00
00078F00
000F0F00
000F0700
001E0700
001E0780
003C0780
003C0780
007C0780
00780780
00F80780
00F00380
01FFFFC0
01FFFFC0
01FFFFC0
03FFFFC0
03C003C0
078003C0
078003C0
0F8001C0
0F0001E0
1F0001E0
1E0001E0
3E0001E0
3C0001E0
7C0001E0
ENDCHAR

STARTCHAR Atilde
ENCODING 195
SWIDTH 547 0
DWIDTH 27 0
BBX 29 45 -2 0
BITMAP
0000F060
0001FCE0
0003FFE0
00039FC0
00030780
00000000
00000000
00000000
00000000
00003E00
00007E00
00007E00
0000FE00
0000EE00
0001EE00
0001EE00
0003CE00
0003CF00
0003CF00
00078F00
00078F00
000F0F00
000F0700
001E0700
001E0780
003C0780
003C0780
007C0780
00780780
00F80780
00F00380
01FFFFC0
01FFFFC0
01FFFFC0
03FFFFC0
03C003C0
078003C0
078003C0
0F8001C0
0F0001E0
1F0001E0
1E0001E0
3E0001E0
3C0001E0
7C0001E0
ENDCHAR

STARTCHAR Adieresis
ENCODING 196
SWIDTH 547 0
DWIDTH 27 0
BBX 29 45 -2 0
BITMAP
0001E1C0
0001E1C0
0001E3C0
0001E3C0
0001C3C0
00000000
00000000
00000000
00000000
00003E00
00007E00
00007E00
0000FE00
0000EE00
0001EE00
0001EE00
0003CE00
0003CF00
0003CF00
00078F00
00078F00
000F0F00
000F0700
001E0700
001E0780
003C0780
003C0780
007C0780
00780780
00F80780
00F00380
01FFFFC0
01FFFFC0
01FFFFC0
03FFFFC0
03C003C0
078003C0
078003C0
0F8001C0
0F0001E0
1F0001E0
1E0001E0
3E0001E0
3C0001E0
7C0001E0
ENDCHAR

STARTCHAR Aring
ENCODING 197
SWIDTH 547 0
DWIDTH 27 0
BBX 29 46 -2 0
BITMAP
00001C00
00007E00
00006600
0000C300
0000C300
0000C300
00006600
00007E00
00001800
00000000
00003E00
00007E00
00007E00
0000FE00
0000EE00
0001EE00
0001EE00
0003CF00
0003CF00
00078F00
00078F00
00078F00
000F0F00
000F0700
001E0780
001E0780
003C0780
003C0780
00780780
00780780
00F80780
00F00380
01FFFFC0
01FFFFC0
03FFFFC0
03FFFFC0
03C003C0
078003C0
078001C0
0F0001E0
0F0001E0
1E0001E0
1E0001E0
3E0001E0
3C0001E0
7C0000E0
ENDCHAR

STARTCHAR AE
ENCODING 198
SWIDTH 820 0
DWIDTH 41 0
BBX 47 36 -3 0
BITMAP
00001FFFFFFC
00001FFFFFFC
00003FFFFFF8
00003FFFFFF8
0000783C0000
0000783C0000
0000F03C0000
0000F0780000
0001F0780000
0001E0780000
0003E0780000
0003C0780000
0007C0780000
000780F00000
000F80F00000
000F00F00000
001F00FFFFE0
001E00FFFFE0
003E00FFFFE0
003C01FFFFE0
007C01E00000
007801E00000
00FFFFE00000
00FFFFE00000
01FFFFE00000
01FFFFC00000
03E003C00000
03C003C00000
07C003C00000
078003C00000
0F8007800000
0F0007800000
1F0007FFFFC0
1E0007FFFFC0
3E0007FFFFC0
3C0007FFFF80
ENDCHAR

STARTCHAR Iogonek
ENCODING 199
SWIDTH 228 0
DWIDTH 11 0
BBX 14 47 0 -11
BITMAP
0070
00F0
00F0
00F0
00F0
00F0
01E0
01E0
01E0
01E0
01E0
01E0
03C0
03C0
03C0
03C0
03C0
03C0
0780
0780
0780
0780
0780
0780
0F00
0F00
0F00
0F00
0F00
0E00
1E00
1E00
1E00
1E00
1E00
1C00
3000
3000
3000
3000
7000
7000
7000
7880
3F80
3F80
1F00
ENDCHAR

STARTCHAR Ccaron
ENCODING 200
SWIDTH 592 0
DWIDTH 30 0
BBX 29 46 3 0
BITMAP
00070F00
00070E00
00079E00
0003BC00
0003F800
0001F000
0001E000
00000000
00000000
0007F000
001FFC00
007FFE00
00FFFF00
01FC1F80
03F007C0
07C003C0
078003E0
0F8001E0
0F0001E0
1E0001E0
1E000080
3E000000
3C000000
3C000000
3C000000
38000000
78000000
78000000
78000000
78000000
78000000
78000000
78000000
780003C0
780003C0
3C000780
3C000780
3C000F00
3E001F00
1F001E00
1F807E00
0FC0FC00
07FFF800
03FFF000
01FFC000
007F0000
ENDCHAR

STARTCHAR Eacute
ENCODING 201
SWIDTH 547 0
DWIDTH 27 0
BBX 31 45 0 0
BITMAP
00001E00
00003C00
00003C00
00007800
00007000
0000E000
00000000
00000000
00000000
00FFFFF8
00FFFFF8
00FFFFF8
01FFFFF8
01E00000
01E00000
01E00000
01E00000
01C00000
03C00000
03C00000
03C00000
03C00000
03C00000
03800000
07FFFFC0
07FFFFC0
07FFFFC0
07FFFF80
07800000
07000000
0F000000
0F000000
0F000000
0F000000
0F000000
0E000000
1E000000
1E000000
1E000000
1E000000
1E000000
1FFFFF80
3FFFFF80
3FFFFF80
3FFFFF00
ENDCHAR

STARTCHAR Eogonek
ENCODING 202
SWIDTH 547 0
DWIDTH 27 0
BBX 30 47 0 -11
BITMAP
00FFFFF8
01FFFFF8
01FFFFF0
01FFFFF0
01E00000
01E00000
01C00000
03C00000
03C00000
03C00000
03C00000
03C00000
03800000
07800000
07800000
07800000
07FFFFC0
07FFFF80
07FFFF80
0FFFFF80
0F000000
0F000000
0F000000
0F000000
1E000000
1E000000
1E000000
1E000000
1E000000
1E000000
3C000000
3C000000
3FFFFF80
3FFFFF00
3FFFFF00
3FFFFF00
0000E000
0000C000
0000C000
0000C000
0001C000
0001C000
0001C000
0001E200
0000FE00
0000FE00
00007C00
ENDCHAR

STARTCHAR Edieresis
ENCODING 203
SWIDTH 547 0
DWIDTH 27 0
BBX 31 45 0 0
BITMAP
0003C380
0003C780
0003C780
0003C780
00038780
00000000
00000000
00000000
00000000
00FFFFF8
00FFFFF8
00FFFFF8
01FFFFF8
01E00000
01E00000
01E00000
01E00000
01C00000
03C00000
03C00000
03C00000
03C00000
03C00000
03800000
07FFFFC0
07FFFFC0
07FFFFC0
07FFFF80
07800000
07000000
0F000000
0F000000
0F000000
0F000000
0F000000
0E000000
1E000000
1E000000
1E000000
1E000000
1E000000
1FFFFF80
3FFFFF80
3FFFFF80
3FFFFF00
ENDCHAR

STARTCHAR Edotaccent
ENCODING 204
SWIDTH 547 0
DWIDTH 27 0
BBX 31 44 0 0
BITMAP
00003C00
00007C00
00007C00
00007800
00007800
00000000
00000000
00000000
00FFFFF8
00FFFFF8
00FFFFF8
01FFFFF8
01E00000
01E00000
01E00000
01E00000
01C00000
03C00000
03C00000
03C00000
03C00000
03C00000
03800000
07FFFFC0
07FFFFC0
07FFFFC0
07FFFF80
07800000
07000000
0F000000
0F000000
0F000000
0F000000
0F000000
0E000000
1E000000
1E000000
1E000000
1E000000
1E000000
1FFFFF80
3FFFFF80
3FFFFF80
3FFFFF00
ENDCHAR

STARTCHAR Iacute
ENCODING 205
SWIDTH 228 0
DWIDTH 11 0
BBX 16 45 1 0
BITMAP
003C
0078
0070
00F0
01E0
01C0
0000
0000
0000
01E0
01E0
01E0
01E0
01E0
03C0
03C0
03C0
03C0
03C0
03C0
0780
0780
0780
0780
0780
0780
0F00
0F00
0F00
0F00
0F00
0F00
1E00
1E00
1E00
1E00
1E00
1C00
3C00
3C00
3C00
3C00
3C00
3800
7800
ENDCHAR

STARTCHAR Icircumflex
ENCODING 206
SWIDTH 228 0
DWIDTH 11 0
BBX 17 45 1 0
BITMAP
00F800
01FC00
01DC00
039C00
078E00
0F0E00
000000
000000
000000
01E000
01E000
01E000
01E000
01E000
03C000
03C000
03C000
03C000
03C000
03C000
078000
078000
078000
078000
078000
078000
0F0000
0F0000
0F0000
0F0000
0F0000
0F0000
1E0000
1E0000
1E0000
1E0000
1E0000
1C0000
3C0000
3C0000
3C0000
3C0000
3C0000
380000
780000
ENDCHAR

STARTCHAR Imacron
ENCODING 207
SWIDTH 228 0
DWIDTH 11 0
BBX 18 43 1 0
BITMAP
0FFF00
0FFF00
0FFF00
000000
000000
000000
000000
01E000
01E000
01E000
01E000
01E000
03C000
03C000
03C000
03C000
03C000
03C000
078000
078000
078000
078000
078000
078000
0F0000
0F0000
0F0000
0F0000
0F0000
0F0000
1E0000
1E0000
1E0000
1E0000
1E0000
1C0000
3C0000
3C0000
3C0000
3C0000
3C0000
380000
780000
ENDCHAR

STARTCHAR Eth
ENCODING 208
SWIDTH 592 0
DWIDTH 30 0
BBX 31 36 0 0
BITMAP
00FFFC00
00FFFF00
01FFFF80
01FFFFC0
01E00FC0
01E003E0
01E001F0
01E000F0
03C000F0
03C000F0
03C00078
03C00078
03C00078
03C00078
07800078
07800078
07800078
3FFF8078
3FFF8078
7FFF8078
0F0000F8
0F0000F0
0F0000F0
0F0000F0
0F0001E0
0E0001E0
1E0003E0
1E0007C0
1E0007C0
1E000F80
1E003F00
3C00FE00
3FFFFC00
3FFFF800
3FFFF000
3FFF8000
ENDCHAR

STARTCHAR Ncommaaccent
ENCODING 209
SWIDTH 592 0
DWIDTH 30 0
BBX 32 47 1 -11
BITMAP
01E0003C
01F0003C
01F0003C
01F0003C
01F80038
03F80078
03F80078
03FC0078
03DC0078
039E0078
039E0070
078E00F0
078F00F0
078F00F0
078700F0
070780F0
0F0780E0
0F03C1E0
0F03C1E0
0F03C1E0
0F01E1E0
0E01E1C0
1E01E1C0
1E00F3C0
1E00F3C0
1E00F3C0
1E0073C0
1C007B80
3C003B80
3C003B80
3C003F80
3C001F80
38001F80
38001F00
78000F00
78000F00
00000000
00000000
00000000
003C0000
00380000
00380000
00180000
00180000
00300000
00600000
00400000
ENDCHAR

STARTCHAR Omacron
ENCODING 210
SWIDTH 638 0
DWIDTH 32 0
BBX 30 43 3 0
BITMAP
0007FF80
0007FF80
000FFF80
00000000
00000000
00000000
0007F000
001FFC00
007FFF00
00FFFF80
01FC1FC0
03F007C0
07C003E0
078001E0
0F8001F0
0F0000F0
1E0000F0
1E000078
3E000078
3C000078
3C000078
3C000078
78000078
78000078
78000078
78000078
78000078
780000F8
780000F0
780000F0
780000F0
780001E0
3C0001E0
3C0003E0
3E0007C0
1E000780
1F000F80
0F803F00
0FE07E00
07FFFC00
03FFF800
00FFE000
003F8000
ENDCHAR

STARTCHAR Kcommaaccent
ENCODING 211
SWIDTH 547 0
DWIDTH 27 0
BBX 32 47 0 -11
BITMAP
00F000FC
00F000F8
00E001F0
01E003E0
01E007C0
01E00F80
01E01F00
01E03E00
01C07E00
03C0FC00
03C1F800
03C3F000
03C7E000
03C7C000
038F8000
079F8000
07BFC000
07FFC000
07FBE000
07F1E000
07E1F000
0FC0F000
0F80F800
0F807800
0F007800
0F003C00
0E003C00
1E003E00
1E001E00
1E001F00
1E000F00
1E000F80
1C000780
3C0007C0
3C0003C0
3C0003E0
00000000
00000000
00000000
00380000
00380000
00380000
00180000
00180000
00300000
00600000
00400000
ENDCHAR

STARTCHAR Ocircumflex
ENCODING 212
SWIDTH 638 0
DWIDTH 32 0
BBX 30 46 3 0
BITMAP
00007C00
00007C00
0000FC00
0001EE00
0003CE00
00038F00
00070700
00000000
00000000
0007F000
001FFC00
007FFF00
00FFFF80
01FC1FC0
03F007C0
07C003E0
078001E0
0F8001F0
0F0000F0
1E0000F0
1E000078
3E000078
3C000078
3C000078
3C000078
78000078
78000078
78000078
78000078
78000078
780000F8
780000F0
780000F0
780000F0
780001E0
3C0001E0
3C0003E0
3E0007C0
1E000780
1F000F80
0F803F00
0FE07E00
07FFFC00
03FFF800
00FFE000
003F8000
ENDCHAR

STARTCHAR Otilde
ENCODING 213
SWIDTH 638 0
DWIDTH 32 0
BBX 30 45 3 0
BITMAP
0003E180
0007FB80
0007FF80
00067F00
000E1E00
00000000
00000000
00000000
0007F000
001FFC00
007FFF00
00FFFF80
01FC1FC0
03F007C0
07C003E0
078001E0
0F8001F0
0F0000F0
1E0000F0
1E000078
3E000078
3C000078
3C000078
3C000078
78000078
78000078
78000078
78000078
78000078
780000F8
780000F0
780000F0
780000F0
780001E0
3C0001E0
3C0003E0
3E0007C0
1E000780
1F000F80
0F803F00
0FE07E00
07FFFC00
03FFF800
00FFE000
003F8000
ENDCHAR

STARTCHAR Odieresis
ENCODING 214
SWIDTH 638 0
DWIDTH 32 0
BBX 30 45 3 0
BITMAP
00038780
00038780
00078700
00078700
00078F00
00000000
00000000
00000000
0007F000
001FFC00
007FFF00
00FFFF80
01FC1FC0
03F007C0
07C003E0
078001E0
0F8001F0
0F0000F0
1E0000F0
1E000078
3E000078
3C000078
3C000078
3C000078
78000078
78000078
78000078
78000078
78000078
780000F8
780000F0
780000F0
780000F0
780001E0
3C0001E0
3C0003E0
3E0007C0
1E000780
1F000F80
0F803F00
0FE07E00
07FFFC00
03FFF800
00FFE000
003F8000
ENDCHAR

STARTCHAR multiply
ENCODING 215
SWIDTH 479 0
DWIDTH 24 0
BBX 21 21 3 7
BITMAP
080080
1C01C0
3E01E0
3E03C0
1F07C0
0F8F80
07DF00
03FE00
01FC00
01FC00
00F800
01FC00
03FE00
07DF00
078F00
0F8F80
1F07C0
3E03E0
3C01E0
1800C0
080080
ENDCHAR

STARTCHAR Oslash
ENCODING 216
SWIDTH 638 0
DWIDTH 32 0
BBX 32 42 2 -3
BITMAP
00000008
0000001C
0003F81C
000FFE38
003FFFF0
007FFFF0
00FE0FE0
01F803E0
03F001F0
03E003F0
07C007F8
07800778
0F800E78
0F001E3C
1F001C3C
1E00383C
1E00783C
1E00703C
1C00E03C
3C01E03C
3C01C03C
3C03803C
3C07803C
3C07003C
3C0E0078
3C1E0078
3C1C0078
3C3800F8
1E3800F0
1E7001F0
1EE001E0
1FE003E0
0FC007C0
0F800FC0
07C01F80
07F07F00
0FFFFE00
0FFFFC00
1C7FF000
381FC000
38000000
10000000
ENDCHAR

STARTCHAR Uogonek
ENCODING 217
SWIDTH 592 0
DWIDTH 30 0
BBX 30 47 3 -11
BITMAP
078000F0
078000F0
078000F0
078000E0
070001E0
0F0001E0
0F0001E0
0F0001E0
0F0001E0
0F0001C0
0E0003C0
1E0003C0
1E0003C0
1E0003C0
1E0003C0
1E000380
1C000780
3C000780
3C000780
3C000780
3C000780
3C000F00
38000F00
78000F00
78000F00
78001F00
78001E00
78001E00
78003E00
7C007C00
3E007C00
3F00F800
1F83F000
1FFFF000
0FFFE000
03FF8000
00FE0000
00C00000
00C00000
00C00000
01C00000
01C00000
01C00000
01E30000
00FE0000
00FE0000
007C0000
ENDCHAR

STARTCHAR Uacute
ENCODING 218
SWIDTH 592 0
DWIDTH 30 0
BBX 30 46 3 -1
BITMAP
00003C00
00007C00
00007800
0000F000
0000E000
0001C000
00000000
00000000
00000000
078000F0
078000F0
078000F0
078000E0
070001E0
0F0001E0
0F0001E0
0F0001E0
0F0001E0
0F0001C0
0E0003C0
1E0003C0
1E0003C0
1E0003C0
1E0003C0
1E000380
1C000780
3C000780
3C000780
3C000780
3C000780
3C000700
38000F00
78000F00
78000F00
78001F00
78001E00
78001E00
78003E00
3C007C00
3E007C00
3F00F800
1F83F000
0FFFF000
07FFE000
03FF8000
007E0000
ENDCHAR

STARTCHAR Ucircumflex
ENCODING 219
SWIDTH 592 0
DWIDTH 30 0
BBX 30 46 3 -1
BITMAP
0000F800
0000FC00
0001DC00
0003DE00
00078E00
00070E00
00000000
00000000
00000000
078000F0
078000F0
078000F0
078000E0
070001E0
0F0001E0
0F0001E0
0F0001E0
0F0001E0
0F0001C0
0E0003C0
1E0003C0
1E0003C0
1E0003C0
1E0003C0
1E000380
1C000780
3C000780
3C000780
3C000780
3C000780
3C000700
38000F00
78000F00
78000F00
78001F00
78001E00
78001E00
78003E00
3C007C00
3E007C00
3F00F800
1F83F000
0FFFF000
07FFE000
03FF8000
007E0000
ENDCHAR

STARTCHAR Udieresis
ENCODING 220
SWIDTH 592 0
DWIDTH 30 0
BBX 30 46 3 -1
BITMAP
00078700
00078700
00078F00
00078F00
00070F00
00000000
00000000
00000000
00000000
078000F0
078000F0
078000F0
078000E0
070001E0
0F0001E0
0F0001E0
0F0001E0
0F0001E0
0F0001C0
0E0003C0
1E0003C0
1E0003C0
1E0003C0
1E0003C0
1E000380
1C000780
3C000780
3C000780
3C000780
3C000780
3C000700
38000F00
78000F00
78000F00
78001F00
78001E00
78001E00
78003E00
3C007C00
3E007C00
3F00F800
1F83F000
0FFFF000
07FFE000
03FF8000
007E0000
ENDCHAR

STARTCHAR Utilde
ENCODING 221
SWIDTH 592 0
DWIDTH 30 0
BBX 30 46 3 -1
BITMAP
00078300
000FE700
000FFF00
001CFE00
001C3C00
00000000
00000000
00000000
00000000
078000F0
078000F0
078000F0
078000E0
070001E0
0F0001E0
0F0001E0
0F0001E0
0F0001E0
0F0001C0
0E0003C0
1E0003C0
1E0003C0
1E0003C0
1E0003C0
1E000380
1C000780
3C000780
3C000780
3C000780
3C000780
3C000F00
38000F00
78000F00
78000F00
78000F00
78001E00
78001E00
78001E00
7C003C00
3C007C00
3E00F800
1F83F800
1FFFF000
0FFFE000
03FF8000
00FE0000
ENDCHAR

STARTCHAR Umacron
ENCODING 222
SWIDTH 592 0
DWIDTH 30 0
BBX 30 44 3 -1
BITMAP
000FFF80
000FFF00
000FFF00
00000000
00000000
00000000
00000000
078000F0
078000F0
078000F0
078000E0
070001E0
0F0001E0
0F0001E0
0F0001E0
0F0001E0
0F0001C0
0E0003C0
1E0003C0
1E0003C0
1E0003C0
1E0003C0
1E000380
1C000780
3C000780
3C000780
3C000780
3C000780
3C000700
38000F00
78000F00
78000F00
78001F00
78001E00
78001E00
78003E00
3C007C00
3E007C00
3F00F800
1F83F000
0FFFF000
07FFE000
03FF8000
007E0000
ENDCHAR

STARTCHAR germandbls
ENCODING 223
SWIDTH 501 0
DWIDTH 25 0
BBX 25 38 0 -1
BITMAP
0007E000
001FF800
003FFC00
007E7E00
00F81E00
00F01E00
01E01E00
01E01E00
01C01E00
01C03C00
03C03800
03C07800
03C0F000
0380E000
0381E000
0781C000
0783C000
0783C000
0783C000
0703C000
0701E000
0F01F000
0F00F800
0F007C00
0F003C00
0E003E00
0E001E00
1E000F00
1E000F00
1E000F00
1E100F00
1C701F00
1C781E00
3C7C3E00
3C3FFC00
3C1FF800
3C0FF000
00038000
ENDCHAR

STARTCHAR amacron
ENCODING 224
SWIDTH 456 0
DWIDTH 23 0
BBX 23 34 1 -1
BITMAP
007FF8
007FF8
00FFF8
000000
000000
000000
001E00
00FFC0
01FFE0
03FFF0
07C1F0
0F80F8
0F0078
0E0078
020078
000078
000078
001FF0
03FFF0
0FFFF0
1FFEF0
3F80F0
3E00E0
3C00E0
7801E0
7801E0
7801E0
7803E0
7807E0
3C0FE0
3F3FE0
1FFDE0
0FF9E0
07E000
ENDCHAR

STARTCHAR aacute
ENCODING 225
SWIDTH 456 0
DWIDTH 23 0
BBX 22 37 1 -1
BITMAP
0001E0
0003C0
000780
000780
000F00
000E00
001C00
000000
000000
003E00
00FFC0
01FFE0
03FFF0
07C1F0
0F80F8
0F0078
0E0078
020078
000078
000078
001FF0
03FFF0
0FFFF0
1FFEF0
3F80F0
3E00E0
3C00E0
7801E0
7801E0
7801E0
7803E0
7807E0
3C0FE0
3F3FE0
1FFDE0
0FF9E0
07E000
ENDCHAR

STARTCHAR acircumflex
ENCODING 226
SWIDTH 456 0
DWIDTH 23 0
BBX 22 37 1 -1
BITMAP
0007C0
000FC0
000FC0
001CE0
003CE0
0078F0
00F070
000000
000000
003E00
00FFC0
01FFE0
03FFF0
07C1F0
0F80F8
0F0078
0E0078
020078
000078
000078
001FF0
03FFF0
0FFFF0
1FFEF0
3F80F0
3E00E0
3C00E0
7801E0
7801E0
7801E0
7803E0
7807E0
3C0FE0
3F3FE0
1FFDE0
0FF9E0
07E000
ENDCHAR

STARTCHAR atilde
ENCODING 227
SWIDTH 456 0
DWIDTH 23 0
BBX 23 36 1 -1
BITMAP
003E18
007F38
007FF8
00E7F0
00E1E0
000000
000000
000000
003E00
00FFC0
01FFE0
03FFF0
07C1F0
0F80F8
0F0078
0E0078
020078
000078
000078
001FF0
03FFF0
0FFFF0
1FFEF0
3F80F0
3E00E0
3C00E0
7801E0
7801E0
7801E0
7803E0
7807E0
3C0FE0
3F3FE0
1FFDE0
0FF9E0
07E000
ENDCHAR

STARTCHAR adieresis
ENCODING 228
SWIDTH 456 0
DWIDTH 23 0
BBX 22 36 1 -1
BITMAP
003878
003878
007870
0078F0
0078F0
000000
000000
000000
003E00
00FFC0
01FFE0
03FFF0
07C1F0
0F80F8
0F0078
0E0078
020078
000078
000078
001FF0
03FFF0
0FFFF0
1FFEF0
3F80F0
3E00E0
3C00E0
7801E0
7801E0
7801E0
7803E0
7807E0
3C0FE0
3F3FE0
1FFDE0
0FF9E0
07E000
ENDCHAR

STARTCHAR aring
ENCODING 229
SWIDTH 456 0
DWIDTH 23 0
BBX 22 38 1 -1
BITMAP
000700
001F80
001980
0030C0
0030C0
0030C0
001980
001F80
000600
000000
003E00
00FFC0
03FFE0
03FFF0
07C1F0
0F00F8
0F0078
0E0078
020078
000078
000078
003FF0
07FFF0
0FFFF0
1FFCF0
3F80F0
3C00E0
3801E0
7801E0
7801E0
7803E0
7803E0
7807E0
3C0FE0
3E3DE0
1FF9E0
1FF1E0
07C000
ENDCHAR

STARTCHAR ae
ENCODING 230
SWIDTH 729 0
DWIDTH 36 0
BBX 37 28 1 -1
BITMAP
001E007800
00FFC3FE00
01FFE7FF00
03FFEFFF80
07C0FF03C0
0F80FE03C0
0F007C01E0
0E007C01E0
06007800E0
00007800E0
0000F000E0
000FF000E0
01FFFFFFE0
0FFFFFFFE0
1FFEFFFFE0
3F00E00000
3C01E00000
7C01E00000
7801E00300
7803E003C0
7803F00780
7807F00780
7C07F80F00
3E1E7C3F00
3FFC3FFE00
1FF83FFC00
0FF00FF000
03C003C000
ENDCHAR

STARTCHAR iogonek
ENCODING 231
SWIDTH 182 0
DWIDTH 9 0
BBX 14 47 -1 -11
BITMAP
0070
00F0
00F0
00F0
00E0
0000
0000
0000
0000
0000
01C0
01C0
03C0
03C0
03C0
03C0
0380
0380
0780
0780
0780
0780
0700
0700
0F00
0F00
0F00
0F00
0E00
0E00
1E00
1E00
1E00
1E00
1C00
1C00
3C00
3000
3000
3000
7000
7000
7000
7880
3F80
3F80
1F00
ENDCHAR

STARTCHAR ccaron
ENCODING 232
SWIDTH 410 0
DWIDTH 20 0
BBX 22 37 1 -1
BITMAP
007070
0038F0
0039E0
003BC0
001F80
001F00
001F00
000000
000000
003E00
00FF80
01FFC0
03FFE0
07C3E0
0F01E0
0F00F0
1E00F0
1E00F0
3C0000
3C0000
3C0000
380000
380000
780000
780000
780000
780000
7801C0
7801C0
7803C0
380380
3C0780
3E0F00
1F3F00
1FFE00
0FFC00
03F000
ENDCHAR

STARTCHAR eacute
ENCODING 233
SWIDTH 456 0
DWIDTH 23 0
BBX 23 37 1 -1
BITMAP
0001E0
0003E0
0003C0
000780
000700
000E00
000000
000000
000000
003F00
00FFC0
03FFE0
03E3E0
0780F0
0F0070
0F0078
1E0078
1E0038
3C0038
3C0038
3C0038
3FFFF8
7FFFF8
7FFFF8
780000
780000
780000
7800C0
7800F0
3C01E0
3C01E0
3E03C0
1F0FC0
1FFF80
0FFF00
07FC00
00F000
ENDCHAR

STARTCHAR eogonek
ENCODING 234
SWIDTH 456 0
DWIDTH 23 0
BBX 23 38 1 -11
BITMAP
007F00
00FFC0
03FFE0
03E3E0
0780F0
0F0070
1F0078
1E0078
1C0038
3C0038
3C0038
3C0038
3FFFF8
7FFFF8
7FFFF8
780000
780000
780000
780080
7800F0
3801E0
3C01E0
3C03C0
1E0FC0
1FFF80
0FFF00
07FE00
01F800
00C000
00C000
00C000
01C000
01C000
01C000
01E300
00FF00
00FE00
007C00
ENDCHAR

STARTCHAR edieresis
ENCODING 235
SWIDTH 456 0
DWIDTH 23 0
BBX 23 36 1 -1
BITMAP
003C78
003C78
003878
007878
007878
000000
000000
000000
003F00
00FFC0
01FFE0
03E3E0
0780F0
0F0070
0F0078
1E0078
1E0038
3C0038
3C0038
3C0038
3FFFF8
7FFFF8
7FFFF8
780000
780000
780000
7800C0
7800F0
3C01E0
3C01E0
3E03C0
1F0FC0
1FFF80
0FFF00
07FC00
00F000
ENDCHAR

STARTCHAR edotaccent
ENCODING 236
SWIDTH 456 0
DWIDTH 23 0
BBX 23 36 1 -1
BITMAP
0007C0
0007C0
000780
000780
000F80
000000
000000
000000
003F00
00FFC0
03FFE0
03E3E0
0780F0
0F0070
0F0078
1E0078
1E0038
3C0038
3C0038
3C0038
3FFFF8
7FFFF8
7FFFF8
780000
780000
780000
7800C0
7800F0
3C01E0
3C01E0
3E03C0
1F0FC0
1FFF80
0FFF00
07FC00
00F000
ENDCHAR

STARTCHAR iacute
ENCODING 237
SWIDTH 228 0
DWIDTH 11 0
BBX 15 36 1 0
BITMAP
007C
0078
00F0
01E0
01C0
03C0
0380
0000
0000
0000
0380
0380
0780
0780
0780
0780
0700
0700
0F00
0F00
0F00
0F00
0E00
0E00
1E00
1E00
1E00
1E00
1C00
1C00
3C00
3C00
3C00
3800
3800
3800
ENDCHAR

STARTCHAR icircumflex
ENCODING 238
SWIDTH 228 0
DWIDTH 11 0
BBX 16 36 1 0
BITMAP
00F0
01F8
03F8
07B8
071C
0E1C
1E1C
0000
0000
0000
0380
0380
0780
0780
0780
0780
0700
0700
0F00
0F00
0F00
0F00
0E00
0E00
1E00
1E00
1E00
1E00
1C00
1C00
3C00
3C00
3C00
3800
3800
3800
ENDCHAR

STARTCHAR imacron
ENCODING 239
SWIDTH 228 0
DWIDTH 11 0
BBX 17 33 1 0
BITMAP
1FFF00
1FFE00
1FFE00
000000
000000
000000
000000
038000
038000
078000
078000
078000
078000
070000
070000
0F0000
0F0000
0F0000
0F0000
0E0000
0E0000
1E0000
1E0000
1E0000
1E0000
1C0000
1C0000
3C0000
3C0000
3C0000
380000
380000
380000
ENDCHAR

STARTCHAR dcroat
ENCODING 240
SWIDTH 456 0
DWIDTH 23 0
BBX 27 37 1 -1
BITMAP
00000E00
00000E00
00000E00
0007FFC0
0007FFC0
0007FF80
00001C00
00001C00
00001C00
00383C00
00FE3C00
03FF3C00
03FFB800
07C3B800
0F01F800
0F00F800
1E00F800
1E00F800
3C00F000
3C00F000
3C00F000
3800F000
7800F000
7800F000
7800E000
7800E000
7801E000
7801E000
7801E000
3803E000
3C07C000
3C07C000
3E1FC000
1FFDC000
0FFBC000
07F3C000
01C00000
ENDCHAR

STARTCHAR ncommaaccent
ENCODING 241
SWIDTH 456 0
DWIDTH 23 0
BBX 23 38 0 -11
BITMAP
0001C0
0387F0
039FF8
03BFF8
07F87C
07E03C
07C03C
07C03C
07803C
07803C
0F0038
0F0038
0F0078
0F0078
0E0078
0E0078
1E0070
1E0070
1E00F0
1C00F0
1C00F0
3C00F0
3C00E0
3C00E0
3C01E0
3801E0
3801E0
000000
000000
000000
00E000
00E000
00E000
006000
004000
00C000
018000
030000
ENDCHAR

STARTCHAR omacron
ENCODING 242
SWIDTH 456 0
DWIDTH 23 0
BBX 23 35 1 -1
BITMAP
007FFC
007FFC
007FF8
000000
000000
000000
000000
007F80
00FFC0
03FFE0
07E3F0
07C0F8
0F0078
0F0078
1E003C
1E003C
3C003C
3C003C
3C003C
38003C
78003C
78003C
780038
780038
780078
780078
7800F0
3800F0
3C01F0
3C03E0
1E07C0
1F9FC0
0FFF80
07FE00
01F800
ENDCHAR

STARTCHAR kcommaaccent
ENCODING 243
SWIDTH 410 0
DWIDTH 20 0
BBX 24 47 0 -11
BITMAP
00E000
01E000
01E000
01E000
01C000
01C000
03C000
03C000
03C000
03C000
03807C
038078
0780F0
0781E0
0783C0
0787C0
070F80
070F00
0F1E00
0F3C00
0F7C00
0FFC00
0FFE00
0FDE00
1F9E00
1F0F00
1E0F00
1C0F00
1C0780
1C0780
3C0780
3C03C0
3C03C0
3803C0
3801E0
3801E0
000000
000000
000000
01E000
01C000
01C000
00C000
00C000
018000
030000
020000
ENDCHAR

STARTCHAR ocircumflex
ENCODING 244
SWIDTH 456 0
DWIDTH 23 0
BBX 23 37 1 -1
BITMAP
0003C0
0007E0
000FE0
001EF0
003C70
003870
000000
000000
000000
003F00
00FFC0
03FFE0
07E3F0
07C0F8
0F0078
0F0078
1E003C
1E003C
3C003C
3C003C
3C003C
38003C
78003C
78003C
780038
780038
780078
780078
7800F0
3800F0
3C01F0
3C03E0
1E07C0
1F9FC0
0FFF80
07FE00
01F800
ENDCHAR

STARTCHAR otilde
ENCODING 245
SWIDTH 456 0
DWIDTH 23 0
BBX 24 36 1 -1
BITMAP
001E0C
003F9C
007FFC
0073F8
006070
000000
000000
000000
007F80
00FFC0
03FFE0
07E3F0
07C0F8
0F0078
0F0078
1E003C
1E003C
3C003C
3C003C
3C003C
38003C
78003C
78003C
780038
780038
780078
780078
7800F0
3800F0
3C01F0
3C03E0
1E07C0
1F9FC0
0FFF80
07FE00
01F800
ENDCHAR

STARTCHAR odieresis
ENCODING 246
SWIDTH 456 0
DWIDTH 23 0
BBX 23 36 1 -1
BITMAP
003C3C
003C38
003C78
003C78
007878
000000
000000
000000
003F00
00FFC0
01FFE0
03E3F0
07C0F8
0F0078
0F0078
1E003C
1E003C
3C003C
3C003C
3C003C
38003C
78003C
78003C
780038
780038
780078
780078
7800F0
3800F0
3C01F0
3C03E0
1E07C0
1F9FC0
0FFF80
07FE00
01F800
ENDCHAR

STARTCHAR divide
ENCODING 247
SWIDTH 479 0
DWIDTH 24 0
BBX 22 20 2 8
BITMAP
007800
007800
007800
007800
007800
000000
000000
000000
7FFFF8
7FFFF8
7FFFF8
7FFFF8
000000
000000
000000
007800
007800
007800
007800
007800
ENDCHAR

STARTCHAR oslash
ENCODING 248
SWIDTH 501 0
DWIDTH 25 0
BBX 25 32 1 -3
BITMAP
00000400
00000E00
003FCE00
007FFC00
01FFF800
01F9F800
03E07C00
07C07C00
0780FC00
0F01DE00
0F01DE00
1E039E00
1E071E00
1E071E00
1C0E1E00
3C1C1E00
3C1C1E00
3C381C00
3C381C00
3C703C00
3CE03C00
3CE07800
1DC07800
1F80F800
1F81F000
0F03E000
0FCFE000
0FFFC000
1FFF0000
38FC0000
38000000
10000000
ENDCHAR

STARTCHAR uogonek
ENCODING 249
SWIDTH 456 0
DWIDTH 23 0
BBX 23 37 2 -11
BITMAP
0F0038
0F0078
0E0078
0E0078
0E0070
0E0070
1E00F0
1E00F0
1E00F0
1C00F0
1C00E0
1C00E0
3C00E0
3C01E0
3C01E0
3801E0
3801C0
3803C0
7803C0
7807C0
780FC0
781FC0
7C3B80
3FFB80
3FF380
1FC380
070700
000600
000600
000600
000600
000E00
000E00
000F10
0007F0
0007F0
0003E0
ENDCHAR

STARTCHAR uacute
ENCODING 250
SWIDTH 456 0
DWIDTH 23 0
BBX 23 37 2 -1
BITMAP
0001E0
0003E0
0003C0
000780
000700
000E00
000E00
000000
000000
000000
0F0038
0F0038
0F0078
0E0078
0E0078
0E0078
1E0070
1E0070
1E00F0
1C00F0
1C00F0
1C00F0
3C00E0
3C00E0
3C01E0
3801E0
3801E0
3801C0
7803C0
7807C0
7807C0
780FC0
7C3FC0
3FFB80
3FF380
1FC380
070000
ENDCHAR

STARTCHAR ucircumflex
ENCODING 251
SWIDTH 456 0
DWIDTH 23 0
BBX 23 37 2 -1
BITMAP
0003C0
0007E0
000FE0
001EE0
003CF0
003870
007870
000000
000000
000000
0F0038
0F0038
0F0078
0E0078
0E0078
0E0078
1E0070
1E0070
1E00F0
1C00F0
1C00F0
1C00F0
3C00E0
3C00E0
3C01E0
3801E0
3801E0
3801C0
7803C0
7807C0
7807C0
780FC0
7C3FC0
3FFB80
3FF380
1FC380
070000
ENDCHAR

STARTCHAR udieresis
ENCODING 252
SWIDTH 456 0
DWIDTH 23 0
BBX 23 36 2 -1
BITMAP
003C78
003C78
003878
003878
007878
000000
000000
000000
000000
0F0038
0F0038
0F0078
0E0078
0E0078
0E0078
1E0070
1E0070
1E00F0
1C00F0
1C00F0
1C00F0
3C00E0
3C00E0
3C01E0
3801E0
3801E0
3801C0
7803C0
7807C0
7807C0
780FC0
7C3FC0
3FFB80
3FF380
1FC380
070000
ENDCHAR

STARTCHAR utilde
ENCODING 253
SWIDTH 456 0
DWIDTH 23 0
BBX 23 36 1 -1
BITMAP
007C38
007F38
00FFF0
00E7F0
00C1E0
000000
000000
000000
000000
0F0038
0F0038
0F0078
0E0078
0E0078
0E0078
1E0070
1E0070
1E00F0
1C00F0
1C00F0
1C00E0
3C00E0
3C00E0
3C01E0
3801E0
3801E0
3803C0
7803C0
7807C0
7807C0
780FC0
7C3FC0
3FFB80
3FF380
1FE380
070000
ENDCHAR

STARTCHAR umacron
ENCODING 254
SWIDTH 456 0
DWIDTH 23 0
BBX 23 34 2 -1
BITMAP
007FF8
007FF8
007FF8
000000
000000
000000
000000
0F0038
0F0038
0F0078
0E0078
0E0078
0E0078
1E0070
1E0070
1E00F0
1C00F0
1C00F0
1C00F0
3C00E0
3C00E0
3C01E0
3801E0
3801E0
3801C0
7803C0
7807C0
7807C0
780FC0
7C3FC0
3FFB80
3FF380
1FC380
070000
ENDCHAR

STARTCHAR dotaccent
ENCODING 255
SWIDTH 273 0
DWIDTH 14 0
BBX 9 5 6 30
BITMAP
1E00
1E00
3E00
3E00
3E00
ENDCHAR
ENDFONT
